<svg id="Layer_1" data-name="Layer 1" xmlns="http://www.w3.org/2000/svg" xmlns:xlink="http://www.w3.org/1999/xlink" width="2597" height="1561" viewBox="0 0 2597 1561"><defs><style>.cls-1{fill:#f6ebf8;}.cls-2{fill:#b7d1f7;}.cls-10,.cls-11,.cls-12,.cls-13,.cls-14,.cls-15,.cls-16,.cls-17,.cls-18,.cls-19,.cls-2,.cls-20,.cls-21,.cls-22,.cls-23,.cls-24,.cls-25,.cls-26,.cls-27,.cls-28,.cls-29,.cls-3,.cls-30,.cls-31,.cls-32,.cls-33,.cls-34,.cls-35,.cls-38,.cls-39,.cls-4,.cls-5,.cls-6,.cls-7,.cls-8,.cls-9{isolation:isolate;}.cls-3{fill:#b8d0f7;}.cls-4{fill:#b8cff7;}.cls-5{fill:#b9cef6;}.cls-6{fill:#b9cdf6;}.cls-7{fill:#baccf6;}.cls-8{fill:#bacbf6;}.cls-9{fill:#bbcaf5;}.cls-10{fill:#bcc9f5;}.cls-11{fill:#bcc8f5;}.cls-12{fill:#bdc7f5;}.cls-13{fill:#bdc6f4;}.cls-14{fill:#bec5f4;}.cls-15{fill:#bec4f4;}.cls-16{fill:#bfc3f4;}.cls-17{fill:#c0c2f3;}.cls-18{fill:#c0c1f3;}.cls-19{fill:#c1c1f3;}.cls-20{fill:#c1c0f3;}.cls-21{fill:#c2bff2;}.cls-22{fill:#c3bef2;}.cls-23{fill:#c3bdf2;}.cls-24{fill:#c4bcf2;}.cls-25{fill:#c4bbf1;}.cls-26{fill:#c5baf1;}.cls-27{fill:#c5b9f1;}.cls-28{fill:#c6b8f1;}.cls-29{fill:#c7b7f0;}.cls-30{fill:#c7b6f0;}.cls-31{fill:#c8b5f0;}.cls-32{fill:#c8b4f0;}.cls-33{fill:#c9b3ef;}.cls-34{fill:#c9b2ef;}.cls-35{fill:#cab1ef;}.cls-36{clip-path:url(#clip-path);}.cls-37{opacity:0.42;}.cls-38{fill:#5cb8df;}.cls-39{fill:#ee70c7;}.cls-40{fill:#fff;}.cls-41{clip-path:url(#clip-path-2);}.cls-42{clip-path:url(#clip-path-3);}</style><clipPath id="clip-path"><path class="cls-1" d="M922.2,1561.51l701.35,2.12c56.06-15.59,92.9-66.42,90-117.94-3.49-61.79-63.61-114.57-134.68-107.52-.78-4.45-21.28-111.56-120.53-148.22-74.37-27.48-160.76-3.5-214.13,60.49,0,0-226-93.52-295.13,141.66C949,1392.1,809,1449.08,922.2,1561.51Z"/></clipPath><clipPath id="clip-path-2"><path class="cls-1" d="M1496.25,1563.51l474.09,1.44c37.9-10.54,62.8-44.9,60.83-79.73-2.37-41.76-43-77.45-91.05-72.68-.52-3-14.38-75.41-81.47-100.2-50.27-18.57-108.67-2.36-144.75,40.9,0,0-152.78-63.22-199.5,95.76C1514.39,1449,1419.71,1487.51,1496.25,1563.51Z"/></clipPath><clipPath id="clip-path-3"><path class="cls-1" d="M391.48,1560.34,922.72,1562c42.47-11.82,70.37-50.31,68.16-89.34-2.65-46.8-48.19-86.79-102-81.44-.59-3.37-16.12-84.51-91.3-112.28-56.33-20.81-121.77-2.65-162.19,45.82,0,0-171.2-70.83-223.56,107.31C411.81,1432,305.71,1475.18,391.48,1560.34Z"/></clipPath></defs><rect class="cls-2" width="363.09" height="1561"/><rect class="cls-3" x="67.69" width="363.09" height="1561"/><rect class="cls-4" x="135.39" width="363.09" height="1561"/><rect class="cls-5" x="203.08" width="363.09" height="1561"/><rect class="cls-6" x="270.78" width="363.09" height="1561"/><rect class="cls-7" x="338.47" width="363.09" height="1561"/><rect class="cls-8" x="406.16" width="363.09" height="1561"/><rect class="cls-9" x="473.86" width="363.09" height="1561"/><rect class="cls-10" x="541.55" width="363.09" height="1561"/><rect class="cls-11" x="609.25" width="363.09" height="1561"/><rect class="cls-12" x="676.94" width="363.09" height="1561"/><rect class="cls-13" x="744.64" width="363.09" height="1561"/><rect class="cls-14" x="812.33" width="363.09" height="1561"/><rect class="cls-15" x="880.02" width="363.09" height="1561"/><rect class="cls-16" x="947.72" width="363.09" height="1561"/><rect class="cls-17" x="1015.41" width="363.09" height="1561"/><rect class="cls-18" x="1083.11" width="363.09" height="1561"/><rect class="cls-19" x="1150.8" width="363.09" height="1561"/><rect class="cls-20" x="1218.49" width="363.09" height="1561"/><rect class="cls-21" x="1286.19" width="363.09" height="1561"/><rect class="cls-22" x="1353.88" width="363.09" height="1561"/><rect class="cls-23" x="1421.58" width="363.09" height="1561"/><rect class="cls-24" x="1489.27" width="363.09" height="1561"/><rect class="cls-25" x="1556.96" width="363.09" height="1561"/><rect class="cls-26" x="1624.66" width="363.09" height="1561"/><rect class="cls-27" x="1692.35" width="363.09" height="1561"/><rect class="cls-28" x="1760.05" width="363.09" height="1561"/><rect class="cls-29" x="1827.74" width="363.09" height="1561"/><rect class="cls-30" x="1895.44" width="363.09" height="1561"/><rect class="cls-31" x="1963.13" width="363.09" height="1561"/><rect class="cls-32" x="2030.82" width="363.09" height="1561"/><rect class="cls-33" x="2098.52" width="363.09" height="1561"/><rect class="cls-34" x="2166.21" width="363.09" height="1561"/><rect class="cls-35" x="2233.91" width="363.09" height="1561"/><path class="cls-1" d="M922.2,1561.51l701.35,2.12c56.06-15.59,92.9-66.42,90-117.94-3.49-61.79-63.61-114.57-134.68-107.52-.78-4.45-21.28-111.56-120.53-148.22-74.37-27.48-160.76-3.5-214.13,60.49,0,0-226-93.52-295.13,141.66C949,1392.1,809,1449.08,922.2,1561.51Z"/><g class="cls-36"><g id="Mask_Group_3" data-name="Mask Group 3"><rect id="Image_9" data-name="Image 9" class="cls-1" x="656.35" y="1090.71" width="1328.41" height="567.31" transform="translate(-23.17 22.64) rotate(-0.97)"/></g></g><g class="cls-37"><rect class="cls-38" x="165.77" y="1257.87" width="11.44" height="126.94" rx="4.5" transform="matrix(0.97, -0.26, 0.26, 0.97, -333.4, 88.28)"/><circle class="cls-39" cx="140.23" cy="1203.63" r="64.04"/><path class="cls-40" d="M98.69,1252.37c-16.48-24.44-15.78-54.63.17-73.3,14.15-16.55,35.19-18.06,40.05-18.28,2.09-.15,22.43-1.19,36,15.07a43.17,43.17,0,0,1,6.35,44.09c-.74,1.91-5.64,14-19,18.91-16.31,6-30.26-4.29-31.18-5-9.34-6.89-14-18-11.88-28.29,2-9.69,9.22-15.11,11.22-16.51a20.42,20.42,0,0,1,22.7-2.29c9.72,5.39,10.24,16.68,10.25,17.21.79,6.52-1.74,12.73-6.64,16.06a15.64,15.64,0,0,1-9.73,2.49c-.64,0-6.56-.54-9.79-5.68-3.11-4.95-1.24-10.39.09-13,.16-.33,1.84-3.6,3.83-3.39a2.25,2.25,0,0,1,1.3.68c3,2.91-.29,11.12,2.22,12.59,2.05,1.19,6.25-1.4,8.26-4.56a11.07,11.07,0,0,0-.5-12.31c-3.75-4.54-13.28-5-21.3,1.53a22.26,22.26,0,0,0-1.27,24.72c5.35,8.62,16.56,12.45,26.73,8.75,1-.4,18.26-7.8,21-25.17,2.4-15-7.09-30.85-23.32-36.93-2.66-.91-23.5-7.62-40.62,4.21-17.42,12-23.93,38.35-12.79,62l18.48,28.22a47.26,47.26,0,0,1-4.91-1.65,49.59,49.59,0,0,1-12.59-7.3"/></g><g class="cls-37"><rect class="cls-38" x="954.9" y="1330.01" width="11.44" height="126.94" rx="4.5" transform="translate(-325.48 293.24) rotate(-14.87)"/><circle class="cls-39" cx="929.36" cy="1275.77" r="64.04"/><path class="cls-40" d="M887.82,1324.51c-16.48-24.44-15.78-54.63.17-73.3,14.15-16.55,35.19-18.06,40-18.28,2.09-.14,22.43-1.19,36,15.07a43.17,43.17,0,0,1,6.35,44.09c-.74,1.91-5.64,14-19,18.91-16.31,6-30.26-4.29-31.18-5-9.34-6.88-14-18-11.88-28.29,2-9.69,9.22-15.11,11.22-16.51a20.4,20.4,0,0,1,22.7-2.28c9.72,5.38,10.24,16.67,10.25,17.2.79,6.52-1.74,12.74-6.64,16.06a15.64,15.64,0,0,1-9.73,2.49c-.64,0-6.56-.54-9.79-5.68-3.11-5-1.24-10.38.09-13,.16-.33,1.84-3.6,3.83-3.39a2.25,2.25,0,0,1,1.3.68c3,2.91-.29,11.12,2.22,12.59,2.05,1.19,6.25-1.39,8.26-4.56a11.07,11.07,0,0,0-.5-12.31c-3.75-4.53-13.28-5-21.3,1.53a22.26,22.26,0,0,0-1.27,24.72c5.35,8.62,16.56,12.45,26.73,8.75,1-.4,18.26-7.8,21-25.16,2.4-15-7.09-30.85-23.32-36.94-2.66-.9-23.5-7.62-40.62,4.21-17.42,12-23.93,38.35-12.79,62l18.48,28.22a47.26,47.26,0,0,1-4.91-1.65,49.29,49.29,0,0,1-12.59-7.3"/></g><g class="cls-37"><rect class="cls-38" x="2378.37" y="1152.97" width="14.03" height="155.72" rx="4.5" transform="translate(328.96 -494.32) rotate(12.7)"/><circle class="cls-39" cx="2418.23" cy="1085.08" r="78.56"/><path class="cls-40" d="M2345.38,1114.49c-4-35.92,13.87-68.36,41.81-79.6,24.78-10,48.52.35,53.93,2.86,2.35,1,25.06,11.45,30.57,36.82,4.1,18.89-2.93,38.79-18.13,51.55-1.89,1.66-14.09,12-31.35,9.8-21.16-2.73-30.47-21.85-31.07-23.15-6.24-12.78-5-27.47,3.14-37.5,7.68-9.41,18.61-11.19,21.58-11.58a25,25,0,0,1,26,10.4c7.51,11.37,1.68,23.94,1.39,24.53-2.85,7.53-9.12,12.86-16.34,13.69a19.11,19.11,0,0,1-12-2.82c-.67-.41-6.82-4.3-7.42-11.73-.57-7.15,4.55-12,7.5-14.13.37-.27,4.05-2.87,6.09-1.51a2.71,2.71,0,0,1,1,1.48c1.6,4.86-6.63,11.92-4.73,15,1.55,2.46,7.59,2,11.57-.27,4.93-2.87,7.42-9,6.44-13.68-1.5-7-11.57-13-24-10.42-10.11,5-16.22,15.44-15.43,26.16.93,12.41,11,22.94,24.1,24.69,1.28.12,24.29,1.88,37.16-15.42,11.13-14.95,9.81-37.57-4.39-53.41-2.38-2.49-21.22-21.62-46.56-18.49-25.77,3.19-47.79,28.11-49.12,60.2q2,20.58,4.07,41.18a59.2,59.2,0,0,1-4.41-4.59,60.59,60.59,0,0,1-9.54-15.09"/></g><g class="cls-37"><rect class="cls-38" x="2433.44" y="1250.85" width="5.52" height="61.31" rx="2.76" transform="translate(341.35 -504.25) rotate(12.7)"/><circle class="cls-39" cx="2449.14" cy="1224.12" r="30.93"/><path class="cls-40" d="M2420.46,1235.7c-1.59-14.15,5.45-26.92,16.46-31.34,9.76-3.93,19.1.13,21.23,1.12.93.41,9.87,4.51,12,14.5a20.86,20.86,0,0,1-7.14,20.3,16.19,16.19,0,0,1-12.35,3.85c-8.32-1.07-12-8.6-12.23-9.11-2.46-5-2-10.82,1.24-14.76a13.36,13.36,0,0,1,8.5-4.57,9.85,9.85,0,0,1,10.22,4.1c3,4.48.66,9.43.55,9.66a8.1,8.1,0,0,1-6.43,5.39,7.55,7.55,0,0,1-4.73-1.11,6.31,6.31,0,0,1-2.92-4.62c-.23-2.82,1.79-4.72,2.95-5.57.15-.1,1.59-1.13,2.4-.59a1.16,1.16,0,0,1,.41.58c.63,1.92-2.62,4.7-1.87,5.89.61,1,3,.8,4.56-.11a5.34,5.34,0,0,0,2.53-5.38c-.59-2.78-4.55-5.13-9.45-4.1a10.52,10.52,0,0,0,3.41,20c.5,0,9.56.74,14.63-6.08,4.38-5.88,3.86-14.79-1.73-21-.93-1-8.35-8.51-18.33-7.27-10.15,1.25-18.82,11.06-19.34,23.7q.79,8.1,1.6,16.21a23.13,23.13,0,0,1-1.73-1.8,23.66,23.66,0,0,1-3.76-5.95"/></g><g class="cls-37"><rect class="cls-38" x="1344.44" y="1302.85" width="5.52" height="61.31" rx="2.76" transform="translate(326.14 -263.56) rotate(12.7)"/><circle class="cls-39" cx="1360.14" cy="1276.12" r="30.93"/><path class="cls-40" d="M1331.46,1287.7c-1.59-14.15,5.45-26.92,16.46-31.34,9.76-3.93,19.1.13,21.23,1.12.93.41,9.87,4.51,12,14.5a20.86,20.86,0,0,1-7.14,20.3,16.19,16.19,0,0,1-12.35,3.85c-8.32-1.07-12-8.6-12.23-9.11-2.46-5-2-10.82,1.24-14.76a13.36,13.36,0,0,1,8.5-4.57,9.85,9.85,0,0,1,10.22,4.1c3,4.48.66,9.43.55,9.66a8.1,8.1,0,0,1-6.43,5.39,7.55,7.55,0,0,1-4.73-1.11,6.31,6.31,0,0,1-2.92-4.62c-.23-2.82,1.79-4.72,2.95-5.57.15-.1,1.59-1.13,2.4-.59a1.16,1.16,0,0,1,.41.58c.63,1.92-2.62,4.7-1.87,5.89.61,1,3,.8,4.56-.11a5.34,5.34,0,0,0,2.53-5.38c-.59-2.78-4.55-5.13-9.45-4.1a10.52,10.52,0,0,0,3.41,20c.5,0,9.56.74,14.63-6.08,4.38-5.88,3.86-14.79-1.73-21-.93-1-8.35-8.51-18.33-7.27-10.15,1.25-18.82,11.06-19.34,23.7q.79,8.1,1.6,16.21a23.13,23.13,0,0,1-1.73-1.8,23.66,23.66,0,0,1-3.76-5.95"/></g><path class="cls-1" d="M1496.25,1563.51l474.09,1.44c37.9-10.54,62.8-44.9,60.83-79.73-2.37-41.76-43-77.45-91.05-72.68-.52-3-14.38-75.41-81.47-100.2-50.27-18.57-108.67-2.36-144.75,40.9,0,0-152.78-63.22-199.5,95.76C1514.39,1449,1419.71,1487.51,1496.25,1563.51Z"/><g class="cls-41"><g id="Mask_Group_3-2" data-name="Mask Group 3"><rect id="Image_9-2" data-name="Image 9" class="cls-1" x="1316.54" y="1245.26" width="897.97" height="383.49" transform="translate(-24.17 30.22) rotate(-0.97)"/></g></g><path class="cls-1" d="M391.48,1560.34,922.72,1562c42.47-11.82,70.37-50.31,68.16-89.34-2.65-46.8-48.19-86.79-102-81.44-.59-3.37-16.12-84.51-91.3-112.28-56.33-20.81-121.77-2.65-162.19,45.82,0,0-171.2-70.83-223.56,107.31C411.81,1432,305.71,1475.18,391.48,1560.34Z"/><g class="cls-42"><g id="Mask_Group_3-3" data-name="Mask Group 3"><rect id="Image_9-3" data-name="Image 9" class="cls-1" x="190.11" y="1203.73" width="1006.22" height="429.72" transform="translate(-24.01 11.99) rotate(-0.97)"/></g></g><path class="cls-1" d="M457.34,1561c37.9-10.54,62.8-44.9,60.83-79.73-2.37-41.76-43-77.45-91-72.68-.52-3-14.38-75.41-81.47-100.2-50.27-18.57-108.67-2.36-144.75,40.9,0,0-152.78-63.22-199.5,95.76,0,0-.5.2-1.4.61v114Z"/><path class="cls-1" d="M2597,1561V1351.89c-.34,0-.69,0-1,.09-.74-4.26-20.36-106.75-115.33-141.83-71.15-26.29-153.82-3.35-204.89,57.88,0,0-216.26-89.48-282.4,135.55,0,0-134,54.52-25.68,162.1Z"/></svg>