<svg id="Group_817" data-name="Group 817" xmlns="http://www.w3.org/2000/svg" width="68" height="63" viewBox="0 0 68 63">
  <path id="Path_12" data-name="Path 12" d="M68.855,4.093A4.131,4.131,0,0,0,64.6.156H5.105A4.133,4.133,0,0,0,.855,4.093V59.218a4.131,4.131,0,0,0,4.25,3.938h32.11V38.67h-8.5V29.6h8.5V21.75c0-7.167,4.715-11.966,14.044-11.966a51.716,51.716,0,0,1,6.972.431V18.4H51.855c-2.822,0-4.25,1.476-4.25,4.059V29.6h9.928L56.1,38.67H47.6V63.156h17a4.13,4.13,0,0,0,4.25-3.937Z" transform="translate(-0.855 -0.156)" fill="#fcf9f9" fill-rule="evenodd"/>
</svg>
