<svg xmlns="http://www.w3.org/2000/svg" xmlns:xlink="http://www.w3.org/1999/xlink" width="2329.894" height="631.356" viewBox="0 0 2329.894 631.356">
  <defs>
    <clipPath id="clip-path">
      <rect id="Rectangle_2253" data-name="Rectangle 2253" width="2329.894" height="631.356" fill="none"/>
    </clipPath>
    <clipPath id="clip-path-2">
      <rect id="Rectangle_2228" data-name="Rectangle 2228" width="2329.891" height="631.356" fill="none"/>
    </clipPath>
    <clipPath id="clip-path-3">
      <rect id="Rectangle_2161" data-name="Rectangle 2161" width="273.073" height="549.059" fill="none"/>
    </clipPath>
    <clipPath id="clip-path-10">
      <rect id="Rectangle_2175" data-name="Rectangle 2175" width="273.074" height="549.059" fill="none"/>
    </clipPath>
    <clipPath id="clip-path-11">
      <rect id="Rectangle_2177" data-name="Rectangle 2177" width="273.077" height="549.059" fill="none"/>
    </clipPath>
    <clipPath id="clip-path-13">
      <rect id="Rectangle_2181" data-name="Rectangle 2181" width="273.076" height="549.059" fill="none"/>
    </clipPath>
    <clipPath id="clip-path-14">
      <rect id="Rectangle_2183" data-name="Rectangle 2183" width="273.071" height="549.059" fill="none"/>
    </clipPath>
    <clipPath id="clip-path-15">
      <rect id="Rectangle_2185" data-name="Rectangle 2185" width="273.075" height="549.059" fill="none"/>
    </clipPath>
    <clipPath id="clip-path-16">
      <rect id="Rectangle_2187" data-name="Rectangle 2187" width="273.068" height="549.059" fill="none"/>
    </clipPath>
    <clipPath id="clip-path-28">
      <rect id="Rectangle_2211" data-name="Rectangle 2211" width="273.067" height="549.059" fill="none"/>
    </clipPath>
    <clipPath id="clip-path-37">
      <path id="Path_38217" data-name="Path 38217" d="M2392.088,392.548s-157.435-69.3-205.577,104.973c-.006,0-97.57,42.22-18.7,125.533l488.527,1.571c39.053-11.557,64.711-49.219,62.675-87.4-2.439-45.784-44.31-84.9-93.819-79.671-.538-3.3-14.82-82.668-83.953-109.834a120.219,120.219,0,0,0-44.054-8.322c-39.153,0-78.162,18.786-105.1,53.146" transform="translate(-2137.024 -339.402)" fill="none"/>
    </clipPath>
    <clipPath id="clip-path-40">
      <path id="Path_38221" data-name="Path 38221" d="M333.215,488.3s-111.221-48.955-145.231,74.159c0,0-68.93,29.826-13.21,88.683L519.9,652.252c27.59-8.164,45.715-34.771,44.276-61.742-1.722-32.343-31.3-59.978-66.278-56.284-.38-2.329-10.471-58.4-59.31-77.594a84.935,84.935,0,0,0-31.122-5.879c-27.661,0-55.219,13.273-74.25,37.546" transform="translate(-153.024 -450.753)" fill="none"/>
    </clipPath>
    <clipPath id="clip-path-42">
      <rect id="Rectangle_2236" data-name="Rectangle 2236" width="93.264" height="188.632" fill="none"/>
    </clipPath>
    <clipPath id="clip-path-43">
      <rect id="Rectangle_2234" data-name="Rectangle 2234" width="30.304" height="95.731" fill="none"/>
    </clipPath>
    <clipPath id="clip-path-44">
      <rect id="Rectangle_2235" data-name="Rectangle 2235" width="93.264" height="99.215" fill="none"/>
    </clipPath>
    <clipPath id="clip-path-45">
      <rect id="Rectangle_2239" data-name="Rectangle 2239" width="93.267" height="188.632" fill="none"/>
    </clipPath>
    <clipPath id="clip-path-46">
      <rect id="Rectangle_2237" data-name="Rectangle 2237" width="30.305" height="95.731" fill="none"/>
    </clipPath>
    <clipPath id="clip-path-47">
      <rect id="Rectangle_2238" data-name="Rectangle 2238" width="93.267" height="99.215" fill="none"/>
    </clipPath>
    <clipPath id="clip-path-48">
      <rect id="Rectangle_2242" data-name="Rectangle 2242" width="114.407" height="233.054" fill="none"/>
    </clipPath>
    <clipPath id="clip-path-49">
      <rect id="Rectangle_2240" data-name="Rectangle 2240" width="33.603" height="118.667" fill="none"/>
    </clipPath>
    <clipPath id="clip-path-50">
      <rect id="Rectangle_2241" data-name="Rectangle 2241" width="114.407" height="121.702" fill="none"/>
    </clipPath>
    <clipPath id="clip-path-51">
      <rect id="Rectangle_2245" data-name="Rectangle 2245" width="45.046" height="91.615" fill="none"/>
    </clipPath>
    <clipPath id="clip-path-52">
      <rect id="Rectangle_2243" data-name="Rectangle 2243" width="12.951" height="46.425" fill="none"/>
    </clipPath>
    <clipPath id="clip-path-53">
      <rect id="Rectangle_2244" data-name="Rectangle 2244" width="45.046" height="47.92" fill="none"/>
    </clipPath>
    <clipPath id="clip-path-54">
      <rect id="Rectangle_2248" data-name="Rectangle 2248" width="45.047" height="91.615" fill="none"/>
    </clipPath>
    <clipPath id="clip-path-56">
      <rect id="Rectangle_2247" data-name="Rectangle 2247" width="45.047" height="47.92" fill="none"/>
    </clipPath>
    <clipPath id="clip-path-57">
      <path id="Path_38238" data-name="Path 38238" d="M1847.215,488.3s-111.221-48.955-145.231,74.159c0,0-68.93,29.826-13.21,88.683l345.123,1.111c27.59-8.164,45.716-34.771,44.276-61.742-1.721-32.343-31.3-59.978-66.277-56.284-.38-2.329-10.471-58.4-59.309-77.594a84.939,84.939,0,0,0-31.122-5.879c-27.661,0-55.219,13.273-74.25,37.546" transform="translate(-1667.024 -450.753)" fill="none"/>
    </clipPath>
    <clipPath id="clip-path-59">
      <path id="Path_38240" data-name="Path 38240" d="M755.564,459.459s-124.629-54.857-162.739,83.1c0,0-77.239,33.423-14.8,99.374l386.728,1.244c30.916-9.148,51.226-38.962,49.615-69.185-1.93-36.243-35.076-67.207-74.268-63.068-.426-2.609-11.733-65.443-66.459-86.948a95.164,95.164,0,0,0-34.873-6.588c-31,0-61.876,14.873-83.2,42.072" transform="translate(-553.651 -417.387)" fill="none"/>
    </clipPath>
  </defs>
  <g id="Group_783" data-name="Group 783" transform="translate(-39.131 -768.644)">
    <g id="Group_781" data-name="Group 781" transform="translate(39.131 768.644)" clip-path="url(#clip-path)">
      <g id="Group_717" data-name="Group 717">
        <g id="Group_716" data-name="Group 716" transform="translate(398 -970)" clip-path="url(#clip-path-2)">
          <g id="Group_616" data-name="Group 616" transform="translate(123.5)" style="isolation: isolate">
            <g id="Group_615" data-name="Group 615">
              <g id="Group_614" data-name="Group 614" clip-path="url(#clip-path-3)">
                <rect id="Rectangle_2160" data-name="Rectangle 2160" width="273.073" height="549.059" transform="translate(0)" fill="#b7d1f7"/>
              </g>
            </g>
          </g>
          <g id="Group_619" data-name="Group 619" transform="translate(174.411)" style="isolation: isolate">
            <g id="Group_618" data-name="Group 618">
              <g id="Group_617" data-name="Group 617" clip-path="url(#clip-path-3)">
                <rect id="Rectangle_2162" data-name="Rectangle 2162" width="273.073" height="549.059" transform="translate(0)" fill="#b8d0f7"/>
              </g>
            </g>
          </g>
          <g id="Group_622" data-name="Group 622" transform="translate(225.322)" style="isolation: isolate">
            <g id="Group_621" data-name="Group 621">
              <g id="Group_620" data-name="Group 620" clip-path="url(#clip-path-3)">
                <rect id="Rectangle_2164" data-name="Rectangle 2164" width="273.073" height="549.059" fill="#b8cff7"/>
              </g>
            </g>
          </g>
          <g id="Group_625" data-name="Group 625" transform="translate(276.233)" style="isolation: isolate">
            <g id="Group_624" data-name="Group 624">
              <g id="Group_623" data-name="Group 623" clip-path="url(#clip-path-3)">
                <rect id="Rectangle_2166" data-name="Rectangle 2166" width="273.073" height="549.059" transform="translate(0)" fill="#b9cef6"/>
              </g>
            </g>
          </g>
          <g id="Group_628" data-name="Group 628" transform="translate(327.144)" style="isolation: isolate">
            <g id="Group_627" data-name="Group 627">
              <g id="Group_626" data-name="Group 626" clip-path="url(#clip-path-3)">
                <rect id="Rectangle_2168" data-name="Rectangle 2168" width="273.073" height="549.059" fill="#b9cdf6"/>
              </g>
            </g>
          </g>
          <g id="Group_631" data-name="Group 631" transform="translate(378.055)" style="isolation: isolate">
            <g id="Group_630" data-name="Group 630">
              <g id="Group_629" data-name="Group 629" clip-path="url(#clip-path-3)">
                <rect id="Rectangle_2170" data-name="Rectangle 2170" width="273.073" height="549.059" transform="translate(0)" fill="#baccf6"/>
              </g>
            </g>
          </g>
          <g id="Group_634" data-name="Group 634" transform="translate(428.966)" style="isolation: isolate">
            <g id="Group_633" data-name="Group 633">
              <g id="Group_632" data-name="Group 632" clip-path="url(#clip-path-3)">
                <rect id="Rectangle_2172" data-name="Rectangle 2172" width="273.073" height="549.059" transform="translate(-0.001)" fill="#bacbf6"/>
              </g>
            </g>
          </g>
          <g id="Group_637" data-name="Group 637" transform="translate(479.876)" style="isolation: isolate">
            <g id="Group_636" data-name="Group 636">
              <g id="Group_635" data-name="Group 635" clip-path="url(#clip-path-10)">
                <rect id="Rectangle_2174" data-name="Rectangle 2174" width="273.073" height="549.059" transform="translate(0)" fill="#bbcaf5"/>
              </g>
            </g>
          </g>
          <g id="Group_640" data-name="Group 640" transform="translate(530.787)" style="isolation: isolate">
            <g id="Group_639" data-name="Group 639">
              <g id="Group_638" data-name="Group 638" clip-path="url(#clip-path-11)">
                <rect id="Rectangle_2176" data-name="Rectangle 2176" width="273.073" height="549.059" transform="translate(0)" fill="#bcc9f5"/>
              </g>
            </g>
          </g>
          <g id="Group_643" data-name="Group 643" transform="translate(581.698)" style="isolation: isolate">
            <g id="Group_642" data-name="Group 642">
              <g id="Group_641" data-name="Group 641" clip-path="url(#clip-path-3)">
                <rect id="Rectangle_2178" data-name="Rectangle 2178" width="273.073" height="549.059" fill="#bcc8f5"/>
              </g>
            </g>
          </g>
          <g id="Group_646" data-name="Group 646" transform="translate(632.61)" style="isolation: isolate">
            <g id="Group_645" data-name="Group 645">
              <g id="Group_644" data-name="Group 644" clip-path="url(#clip-path-13)">
                <rect id="Rectangle_2180" data-name="Rectangle 2180" width="273.073" height="549.059" transform="translate(0)" fill="#bdc7f5"/>
              </g>
            </g>
          </g>
          <g id="Group_649" data-name="Group 649" transform="translate(683.521)" style="isolation: isolate">
            <g id="Group_648" data-name="Group 648">
              <g id="Group_647" data-name="Group 647" clip-path="url(#clip-path-14)">
                <rect id="Rectangle_2182" data-name="Rectangle 2182" width="273.073" height="549.059" transform="translate(0)" fill="#bdc6f4"/>
              </g>
            </g>
          </g>
          <g id="Group_652" data-name="Group 652" transform="translate(734.431)" style="isolation: isolate">
            <g id="Group_651" data-name="Group 651">
              <g id="Group_650" data-name="Group 650" clip-path="url(#clip-path-15)">
                <rect id="Rectangle_2184" data-name="Rectangle 2184" width="273.073" height="549.059" fill="#bec5f4"/>
              </g>
            </g>
          </g>
          <g id="Group_655" data-name="Group 655" transform="translate(785.345)" style="isolation: isolate">
            <g id="Group_654" data-name="Group 654">
              <g id="Group_653" data-name="Group 653" clip-path="url(#clip-path-16)">
                <rect id="Rectangle_2186" data-name="Rectangle 2186" width="273.073" height="549.059" transform="translate(-0.003)" fill="#bec4f4"/>
              </g>
            </g>
          </g>
          <g id="Group_658" data-name="Group 658" transform="translate(836.252)" style="isolation: isolate">
            <g id="Group_657" data-name="Group 657">
              <g id="Group_656" data-name="Group 656" clip-path="url(#clip-path-15)">
                <rect id="Rectangle_2188" data-name="Rectangle 2188" width="273.073" height="549.059" transform="translate(0.001)" fill="#bfc3f4"/>
              </g>
            </g>
          </g>
          <g id="Group_661" data-name="Group 661" transform="translate(887.166)" style="isolation: isolate">
            <g id="Group_660" data-name="Group 660">
              <g id="Group_659" data-name="Group 659" clip-path="url(#clip-path-15)">
                <rect id="Rectangle_2190" data-name="Rectangle 2190" width="273.073" height="549.059" transform="translate(-0.001)" fill="#c0c2f3"/>
              </g>
            </g>
          </g>
          <g id="Group_664" data-name="Group 664" transform="translate(938.072)" style="isolation: isolate">
            <g id="Group_663" data-name="Group 663">
              <g id="Group_662" data-name="Group 662" clip-path="url(#clip-path-15)">
                <rect id="Rectangle_2192" data-name="Rectangle 2192" width="273.073" height="549.059" transform="translate(0.003)" fill="#c0c1f3"/>
              </g>
            </g>
          </g>
          <g id="Group_667" data-name="Group 667" transform="translate(988.986)" style="isolation: isolate">
            <g id="Group_666" data-name="Group 666">
              <g id="Group_665" data-name="Group 665" clip-path="url(#clip-path-15)">
                <rect id="Rectangle_2194" data-name="Rectangle 2194" width="273.073" height="549.059" transform="translate(-0.001)" fill="#c1c1f3"/>
              </g>
            </g>
          </g>
          <g id="Group_670" data-name="Group 670" transform="translate(1039.9)" style="isolation: isolate">
            <g id="Group_669" data-name="Group 669">
              <g id="Group_668" data-name="Group 668" clip-path="url(#clip-path-16)">
                <rect id="Rectangle_2196" data-name="Rectangle 2196" width="273.073" height="549.059" transform="translate(-0.004)" fill="#c1c0f3"/>
              </g>
            </g>
          </g>
          <g id="Group_673" data-name="Group 673" transform="translate(1090.807)" style="isolation: isolate">
            <g id="Group_672" data-name="Group 672">
              <g id="Group_671" data-name="Group 671" clip-path="url(#clip-path-15)">
                <rect id="Rectangle_2198" data-name="Rectangle 2198" width="273.073" height="549.059" transform="translate(0.001)" fill="#c2bff2"/>
              </g>
            </g>
          </g>
          <g id="Group_676" data-name="Group 676" transform="translate(1141.721)" style="isolation: isolate">
            <g id="Group_675" data-name="Group 675">
              <g id="Group_674" data-name="Group 674" clip-path="url(#clip-path-16)">
                <rect id="Rectangle_2200" data-name="Rectangle 2200" width="273.073" height="549.059" transform="translate(-0.002)" fill="#c3bef2"/>
              </g>
            </g>
          </g>
          <g id="Group_679" data-name="Group 679" transform="translate(1192.628)" style="isolation: isolate">
            <g id="Group_678" data-name="Group 678">
              <g id="Group_677" data-name="Group 677" clip-path="url(#clip-path-15)">
                <rect id="Rectangle_2202" data-name="Rectangle 2202" width="273.073" height="549.059" transform="translate(0.002)" fill="#c3bdf2"/>
              </g>
            </g>
          </g>
          <g id="Group_682" data-name="Group 682" transform="translate(1243.542)" style="isolation: isolate">
            <g id="Group_681" data-name="Group 681">
              <g id="Group_680" data-name="Group 680" clip-path="url(#clip-path-15)">
                <rect id="Rectangle_2204" data-name="Rectangle 2204" width="273.073" height="549.059" transform="translate(-0.002)" fill="#c4bcf2"/>
              </g>
            </g>
          </g>
          <g id="Group_685" data-name="Group 685" transform="translate(1294.448)" style="isolation: isolate">
            <g id="Group_684" data-name="Group 684">
              <g id="Group_683" data-name="Group 683" clip-path="url(#clip-path-15)">
                <rect id="Rectangle_2206" data-name="Rectangle 2206" width="273.073" height="549.059" transform="translate(0.003)" fill="#c4bbf1"/>
              </g>
            </g>
          </g>
          <g id="Group_688" data-name="Group 688" transform="translate(1345.362)" style="isolation: isolate">
            <g id="Group_687" data-name="Group 687">
              <g id="Group_686" data-name="Group 686" clip-path="url(#clip-path-15)">
                <rect id="Rectangle_2208" data-name="Rectangle 2208" width="273.073" height="549.059" fill="#c5baf1"/>
              </g>
            </g>
          </g>
          <g id="Group_691" data-name="Group 691" transform="translate(1396.276)" style="isolation: isolate">
            <g id="Group_690" data-name="Group 690">
              <g id="Group_689" data-name="Group 689" clip-path="url(#clip-path-28)">
                <rect id="Rectangle_2210" data-name="Rectangle 2210" width="273.073" height="549.059" transform="translate(-0.003)" fill="#c5b9f1"/>
              </g>
            </g>
          </g>
          <g id="Group_694" data-name="Group 694" transform="translate(1447.183)" style="isolation: isolate">
            <g id="Group_693" data-name="Group 693">
              <g id="Group_692" data-name="Group 692" clip-path="url(#clip-path-15)">
                <rect id="Rectangle_2212" data-name="Rectangle 2212" width="273.073" height="549.059" transform="translate(0.002)" fill="#c6b8f1"/>
              </g>
            </g>
          </g>
          <g id="Group_697" data-name="Group 697" transform="translate(1498.097)" style="isolation: isolate">
            <g id="Group_696" data-name="Group 696">
              <g id="Group_695" data-name="Group 695" clip-path="url(#clip-path-15)">
                <rect id="Rectangle_2214" data-name="Rectangle 2214" width="273.073" height="549.059" transform="translate(-0.001)" fill="#c7b7f0"/>
              </g>
            </g>
          </g>
          <g id="Group_700" data-name="Group 700" transform="translate(1549.004)" style="isolation: isolate">
            <g id="Group_699" data-name="Group 699">
              <g id="Group_698" data-name="Group 698" clip-path="url(#clip-path-15)">
                <rect id="Rectangle_2216" data-name="Rectangle 2216" width="273.073" height="549.059" transform="translate(0.002)" fill="#c7b6f0"/>
              </g>
            </g>
          </g>
          <g id="Group_703" data-name="Group 703" transform="translate(1599.918)" style="isolation: isolate">
            <g id="Group_702" data-name="Group 702">
              <g id="Group_701" data-name="Group 701" clip-path="url(#clip-path-15)">
                <rect id="Rectangle_2218" data-name="Rectangle 2218" width="273.073" height="549.059" transform="translate(-0.001)" fill="#c8b5f0"/>
              </g>
            </g>
          </g>
          <g id="Group_706" data-name="Group 706" transform="translate(1650.832)" style="isolation: isolate">
            <g id="Group_705" data-name="Group 705">
              <g id="Group_704" data-name="Group 704" clip-path="url(#clip-path-16)">
                <rect id="Rectangle_2220" data-name="Rectangle 2220" width="273.073" height="549.059" transform="translate(-0.004)" fill="#c8b4f0"/>
              </g>
            </g>
          </g>
          <g id="Group_709" data-name="Group 709" transform="translate(1701.738)" style="isolation: isolate">
            <g id="Group_708" data-name="Group 708">
              <g id="Group_707" data-name="Group 707" clip-path="url(#clip-path-15)">
                <rect id="Rectangle_2222" data-name="Rectangle 2222" width="273.073" height="549.059" transform="translate(0.001)" fill="#c9b3ef"/>
              </g>
            </g>
          </g>
          <g id="Group_712" data-name="Group 712" transform="translate(1752.653)" style="isolation: isolate">
            <g id="Group_711" data-name="Group 711">
              <g id="Group_710" data-name="Group 710" clip-path="url(#clip-path-28)">
                <rect id="Rectangle_2224" data-name="Rectangle 2224" width="273.073" height="549.059" transform="translate(-0.002)" fill="#c9b2ef"/>
              </g>
            </g>
          </g>
          <g id="Group_715" data-name="Group 715" transform="translate(1803.559)" style="isolation: isolate">
            <g id="Group_714" data-name="Group 714">
              <g id="Group_713" data-name="Group 713" clip-path="url(#clip-path-15)">
                <rect id="Rectangle_2226" data-name="Rectangle 2226" width="273.073" height="549.059" transform="translate(0.002)" fill="#cab1ef"/>
              </g>
            </g>
          </g>
          <path id="Path_38216" data-name="Path 38216" d="M2167.811,623.052l488.528,1.572c39.053-11.557,64.71-49.219,62.675-87.4-2.439-45.784-44.31-84.9-93.818-79.671-.538-3.3-14.821-82.668-83.954-109.835-51.8-20.357-111.979-2.594-149.155,44.825,0,0-157.435-69.3-205.576,104.973-.005,0-97.572,42.22-18.7,125.532" transform="translate(-581.342 -76.564)" fill="#f6ebf8"/>
        </g>
      </g>
      <g id="Group_719" data-name="Group 719" transform="translate(1555.682 262.837)">
        <g id="Group_718" data-name="Group 718" clip-path="url(#clip-path-37)">
          <path id="Path_38241" data-name="Path 38241" d="M.517,1.2l925.325-1-.429,420.369-925.325,1Z" transform="matrix(1, -0.017, 0.017, 1, -158.22, -58.004)" fill="#f6ebf8"/>
        </g>
      </g>
      <g id="Group_721" data-name="Group 721">
        <g id="Group_720" data-name="Group 720" clip-path="url(#clip-path-2)">
          <path id="Path_38218" data-name="Path 38218" d="M1110.826,621.159l510.559,1.643c40.815-12.077,67.629-51.438,65.5-91.337-2.548-47.849-46.307-88.727-98.048-83.263-.562-3.444-15.489-86.4-87.739-114.788-54.136-21.276-117.029-2.71-155.881,46.846,0,0-164.534-72.422-214.847,109.706-.007,0-101.972,44.124-19.544,131.194" transform="translate(-293.429 -73.252)" fill="#f6ebf8"/>
        </g>
      </g>
      <g id="Group_725" data-name="Group 725">
        <g id="Group_724" data-name="Group 724" clip-path="url(#clip-path-2)">
          <path id="Path_38220" data-name="Path 38220" d="M174.773,651.141,519.9,652.252c27.59-8.164,45.715-34.771,44.276-61.742-1.722-32.344-31.3-59.977-66.278-56.284-.38-2.328-10.47-58.4-59.31-77.594-36.594-14.382-79.108-1.832-105.371,31.667,0,0-111.221-48.955-145.232,74.159,0,0-68.929,29.826-13.21,88.683" transform="translate(-41.628 -101.684)" fill="#f6ebf8"/>
        </g>
      </g>
      <g id="Group_727" data-name="Group 727" transform="translate(111.396 349.069)">
        <g id="Group_726" data-name="Group 726" clip-path="url(#clip-path-40)">
          <path id="Path_38243" data-name="Path 38243" d="M.365.845l653.7-.709-.3,296.973-653.7.709Z" transform="translate(-111.776 -40.976) rotate(-0.974)" fill="#f6ebf8"/>
        </g>
      </g>
      <g id="Group_774" data-name="Group 774">
        <g id="Group_773" data-name="Group 773" clip-path="url(#clip-path-2)">
          <g id="Group_736" data-name="Group 736" transform="translate(201.516 221.148)" opacity="0.42">
            <g id="Group_735" data-name="Group 735">
              <g id="Group_734" data-name="Group 734" clip-path="url(#clip-path-42)">
                <g id="Group_730" data-name="Group 730" transform="translate(54.236 92.901)" style="isolation: isolate">
                  <g id="Group_729" data-name="Group 729">
                    <g id="Group_728" data-name="Group 728" clip-path="url(#clip-path-43)">
                      <path id="Path_38222" data-name="Path 38222" d="M379.192,500.662l-1.714.484a3.261,3.261,0,0,1-4.007-2.473L351.435,410.4a3.512,3.512,0,0,1,2.325-4.262l1.714-.484a3.261,3.261,0,0,1,4.007,2.474L381.517,496.4a3.512,3.512,0,0,1-2.325,4.262" transform="translate(-351.324 -405.532)" fill="#5cb8df"/>
                    </g>
                  </g>
                </g>
                <g id="Group_733" data-name="Group 733" style="isolation: isolate">
                  <g id="Group_732" data-name="Group 732">
                    <g id="Group_731" data-name="Group 731" clip-path="url(#clip-path-44)">
                      <path id="Path_38223" data-name="Path 38223" d="M368.511,322.446c6.608,26.473-8.208,53.633-33.093,60.663s-50.416-8.732-57.025-35.2,8.208-53.634,33.093-60.664,50.416,8.731,57.025,35.2" transform="translate(-276.82 -285.569)" fill="#ee70c7"/>
                    </g>
                  </g>
                </g>
                <path id="Path_38224" data-name="Path 38224" d="M296.052,377.7c-11.99-18.925-11.484-42.309.127-56.762,10.3-12.819,25.616-13.985,29.154-14.159,1.523-.111,16.33-.918,26.194,11.669,7.347,9.376,9.114,22.563,4.624,34.147-.538,1.48-4.11,10.846-13.8,14.644-11.875,4.654-22.027-3.325-22.7-3.874-6.795-5.331-10.19-13.9-8.644-21.9a21.326,21.326,0,0,1,8.167-12.787,14.143,14.143,0,0,1,16.521-1.771c7.074,4.169,7.456,12.911,7.467,13.325.569,5.045-1.267,9.861-4.835,12.433a10.811,10.811,0,0,1-7.084,1.93,9.338,9.338,0,0,1-7.128-4.4c-2.265-3.833-.9-8.041.063-10.1.119-.255,1.339-2.788,2.791-2.621a1.583,1.583,0,0,1,.948.527c2.178,2.253-.216,8.611,1.617,9.744,1.493.924,4.55-1.078,6.009-3.531a9.029,9.029,0,0,0-.367-9.535c-2.726-3.51-9.662-3.9-15.5,1.188a18.154,18.154,0,0,0-.93,19.143,15.829,15.829,0,0,0,19.459,6.777c.707-.307,13.294-6.044,15.314-19.489,1.744-11.615-5.165-23.891-16.983-28.6-1.936-.7-17.1-5.9-29.571,3.26-12.68,9.315-17.418,29.7-9.3,48.041l13.451,21.855a34,34,0,0,1-3.577-1.279,35.676,35.676,0,0,1-9.165-5.658" transform="translate(-279.661 -290.341)" fill="#fff"/>
              </g>
            </g>
          </g>
          <g id="Group_745" data-name="Group 745" transform="translate(775.976 277.015)" opacity="0.42">
            <g id="Group_744" data-name="Group 744">
              <g id="Group_743" data-name="Group 743" clip-path="url(#clip-path-45)">
                <g id="Group_739" data-name="Group 739" transform="translate(54.234 92.902)" style="isolation: isolate">
                  <g id="Group_738" data-name="Group 738">
                    <g id="Group_737" data-name="Group 737" clip-path="url(#clip-path-46)">
                      <path id="Path_38225" data-name="Path 38225" d="M1168.322,572.8l-1.714.484a3.262,3.262,0,0,1-4.007-2.474l-22.036-88.275a3.512,3.512,0,0,1,2.325-4.262l1.714-.484a3.261,3.261,0,0,1,4.007,2.473l22.036,88.275a3.512,3.512,0,0,1-2.325,4.262" transform="translate(-1140.451 -477.674)" fill="#5cb8df"/>
                    </g>
                  </g>
                </g>
                <g id="Group_742" data-name="Group 742" style="isolation: isolate">
                  <g id="Group_741" data-name="Group 741">
                    <g id="Group_740" data-name="Group 740" clip-path="url(#clip-path-47)">
                      <path id="Path_38226" data-name="Path 38226" d="M1157.641,394.588c6.608,26.473-8.208,53.633-33.093,60.663s-50.416-8.732-57.025-35.2,8.208-53.634,33.093-60.664,50.416,8.732,57.025,35.2" transform="translate(-1065.95 -357.71)" fill="#ee70c7"/>
                    </g>
                  </g>
                </g>
                <path id="Path_38227" data-name="Path 38227" d="M1085.182,449.836c-11.99-18.925-11.484-42.309.127-56.762,10.3-12.819,25.616-13.985,29.154-14.159,1.523-.111,16.33-.918,26.193,11.669,7.347,9.376,9.114,22.563,4.623,34.147-.537,1.48-4.109,10.846-13.8,14.644-11.875,4.654-22.027-3.325-22.7-3.874-6.8-5.331-10.19-13.9-8.644-21.9a21.325,21.325,0,0,1,8.167-12.787,14.143,14.143,0,0,1,16.521-1.771c7.074,4.169,7.456,12.911,7.467,13.325.569,5.045-1.267,9.861-4.835,12.433a10.812,10.812,0,0,1-7.084,1.93,9.338,9.338,0,0,1-7.128-4.4c-2.265-3.833-.9-8.041.063-10.1.119-.255,1.339-2.788,2.791-2.621a1.583,1.583,0,0,1,.948.527c2.178,2.253-.216,8.611,1.617,9.744,1.493.924,4.55-1.078,6.009-3.53a9.029,9.029,0,0,0-.367-9.535c-2.726-3.51-9.662-3.9-15.5,1.188a18.154,18.154,0,0,0-.93,19.143,15.829,15.829,0,0,0,19.459,6.777c.707-.307,13.294-6.044,15.313-19.489,1.744-11.615-5.165-23.891-16.983-28.6-1.936-.7-17.1-5.9-29.571,3.26-12.68,9.315-17.418,29.7-9.3,48.041l13.451,21.855a34.008,34.008,0,0,1-3.577-1.279,35.675,35.675,0,0,1-9.165-5.658" transform="translate(-1068.791 -362.482)" fill="#fff"/>
              </g>
            </g>
          </g>
          <g id="Group_754" data-name="Group 754" transform="translate(1849.254 118.102)" opacity="0.42">
            <g id="Group_753" data-name="Group 753">
              <g id="Group_752" data-name="Group 752" clip-path="url(#clip-path-48)">
                <g id="Group_748" data-name="Group 748" transform="translate(16.488 114.387)" style="isolation: isolate">
                  <g id="Group_747" data-name="Group 747">
                    <g id="Group_746" data-name="Group 746" clip-path="url(#clip-path-49)">
                      <path id="Path_38228" data-name="Path 38228" d="M2569.078,418.794l-3.572-.857a3.494,3.494,0,0,1-2.475-4.166l23.481-110.839a3.278,3.278,0,0,1,3.916-2.633l3.572.856a3.5,3.5,0,0,1,2.475,4.166l-23.481,110.839a3.278,3.278,0,0,1-3.916,2.634" transform="translate(-2562.95 -300.213)" fill="#5cb8df"/>
                    </g>
                  </g>
                </g>
                <g id="Group_751" data-name="Group 751" style="isolation: isolate">
                  <g id="Group_750" data-name="Group 750">
                    <g id="Group_749" data-name="Group 749" clip-path="url(#clip-path-50)">
                      <path id="Path_38229" data-name="Path 38229" d="M2653.293,226.732c-6.944,32.778-37.551,53.361-68.364,45.974s-50.16-39.947-43.216-72.724,37.55-53.361,68.362-45.974,50.161,39.947,43.217,72.724" transform="translate(-2540.301 -152.505)" fill="#ee70c7"/>
                    </g>
                  </g>
                </g>
                <path id="Path_38230" data-name="Path 38230" d="M2545.878,241.577c-2.937-27.822,10.094-52.942,30.435-61.644,18.041-7.719,35.318.266,39.258,2.213,1.715.8,18.248,8.865,22.255,28.51a42.519,42.519,0,0,1-13.2,39.923c-1.374,1.285-10.258,9.311-22.824,7.587-15.4-2.112-22.177-16.92-22.616-17.925-4.545-9.9-3.661-21.272,2.291-29.038a24.108,24.108,0,0,1,15.705-8.97,17.735,17.735,0,0,1,18.909,8.052c5.468,8.807,1.216,18.543,1.007,19-2.072,5.829-6.64,9.957-11.894,10.6a13.3,13.3,0,0,1-8.733-2.18,12.408,12.408,0,0,1-5.4-9.091c-.417-5.536,3.312-9.287,5.458-10.941.266-.205,2.944-2.223,4.435-1.165a2.1,2.1,0,0,1,.748,1.145c1.167,3.766-4.83,9.233-3.442,11.573,1.13,1.907,5.523,1.577,8.418-.209a10.774,10.774,0,0,0,4.69-10.589c-1.092-5.463-8.425-10.079-17.486-8.069a21.383,21.383,0,0,0-11.229,20.254,20.759,20.759,0,0,0,17.542,19.123c.932.092,17.681,1.457,27.053-11.942,8.1-11.577,7.135-29.1-3.2-41.361-1.731-1.931-15.448-16.744-33.893-14.317-18.761,2.469-34.791,21.771-35.76,46.617q1.481,15.944,2.961,31.89a45.331,45.331,0,0,1-3.208-3.551,47.662,47.662,0,0,1-6.945-11.688" transform="translate(-2541.706 -157.948)" fill="#fff"/>
              </g>
            </g>
          </g>
          <g id="Group_763" data-name="Group 763" transform="translate(1906.436 262.664)" opacity="0.42">
            <g id="Group_762" data-name="Group 762">
              <g id="Group_761" data-name="Group 761" clip-path="url(#clip-path-51)">
                <g id="Group_757" data-name="Group 757" transform="translate(6.632 45.189)" style="isolation: isolate">
                  <g id="Group_756" data-name="Group 756">
                    <g id="Group_755" data-name="Group 755" clip-path="url(#clip-path-52)">
                      <path id="Path_38231" data-name="Path 38231" d="M2629.53,443.9h0a2.144,2.144,0,0,1-1.519-2.556l8.928-42.147a2.013,2.013,0,0,1,2.4-1.616,2.146,2.146,0,0,1,1.519,2.557l-8.929,42.147a2.012,2.012,0,0,1-2.4,1.616" transform="translate(-2627.96 -397.531)" fill="#5cb8df"/>
                    </g>
                  </g>
                </g>
                <g id="Group_760" data-name="Group 760" style="isolation: isolate">
                  <g id="Group_759" data-name="Group 759">
                    <g id="Group_758" data-name="Group 758" clip-path="url(#clip-path-53)">
                      <path id="Path_38232" data-name="Path 38232" d="M2663.339,368.4c-2.734,12.906-14.786,21.011-26.917,18.1s-19.75-15.729-17.017-28.635,14.786-21.011,26.918-18.1,19.75,15.729,17.016,28.635" transform="translate(-2618.85 -339.178)" fill="#ee70c7"/>
                    </g>
                  </g>
                </g>
                <path id="Path_38233" data-name="Path 38233" d="M2621.045,374.25c-1.157-10.955,3.974-20.846,11.984-24.272,7.1-3.039,13.906.1,15.458.872a16.442,16.442,0,0,1,8.762,11.225,16.741,16.741,0,0,1-5.2,15.72,11.376,11.376,0,0,1-8.988,2.988c-6.062-.832-8.731-6.663-8.9-7.058a11.25,11.25,0,0,1,.9-11.433,9.5,9.5,0,0,1,6.184-3.533,6.982,6.982,0,0,1,7.445,3.171,8.519,8.519,0,0,1,.4,7.481,5.991,5.991,0,0,1-4.683,4.173,5.239,5.239,0,0,1-3.439-.858,4.889,4.889,0,0,1-2.126-3.579,5.082,5.082,0,0,1,2.149-4.308c.1-.081,1.158-.875,1.746-.458a.823.823,0,0,1,.295.451c.46,1.483-1.9,3.635-1.355,4.557.445.75,2.175.621,3.315-.082a4.241,4.241,0,0,0,1.846-4.169c-.429-2.151-3.317-3.969-6.885-3.177a8.419,8.419,0,0,0-4.421,7.975,8.172,8.172,0,0,0,6.906,7.53c.368.036,6.963.574,10.653-4.7,3.188-4.558,2.81-11.457-1.26-16.286-.682-.76-6.082-6.593-13.345-5.637-7.387.972-13.7,8.572-14.08,18.355q.583,6.279,1.166,12.556a17.712,17.712,0,0,1-1.263-1.4,18.753,18.753,0,0,1-2.735-4.6" transform="translate(-2619.403 -341.321)" fill="#fff"/>
              </g>
            </g>
          </g>
          <g id="Group_772" data-name="Group 772" transform="translate(1113.68 302.933)" opacity="0.42">
            <g id="Group_771" data-name="Group 771">
              <g id="Group_770" data-name="Group 770" clip-path="url(#clip-path-54)">
                <g id="Group_766" data-name="Group 766" transform="translate(6.632 45.189)" style="isolation: isolate">
                  <g id="Group_765" data-name="Group 765">
                    <g id="Group_764" data-name="Group 764" clip-path="url(#clip-path-52)">
                      <path id="Path_38234" data-name="Path 38234" d="M1540.53,495.9h0a2.145,2.145,0,0,1-1.519-2.556l8.928-42.147a2.013,2.013,0,0,1,2.4-1.616,2.145,2.145,0,0,1,1.519,2.557l-8.928,42.147a2.012,2.012,0,0,1-2.4,1.616" transform="translate(-1538.96 -449.531)" fill="#5cb8df"/>
                    </g>
                  </g>
                </g>
                <g id="Group_769" data-name="Group 769" style="isolation: isolate">
                  <g id="Group_768" data-name="Group 768">
                    <g id="Group_767" data-name="Group 767" clip-path="url(#clip-path-56)">
                      <path id="Path_38235" data-name="Path 38235" d="M1574.339,420.4c-2.734,12.906-14.786,21.011-26.918,18.1s-19.75-15.729-17.016-28.635,14.786-21.01,26.918-18.1,19.751,15.729,17.016,28.635" transform="translate(-1529.85 -391.178)" fill="#ee70c7"/>
                    </g>
                  </g>
                </g>
                <path id="Path_38236" data-name="Path 38236" d="M1532.045,426.25c-1.157-10.955,3.974-20.846,11.984-24.272,7.1-3.039,13.906.1,15.458.872a16.439,16.439,0,0,1,8.762,11.225,16.741,16.741,0,0,1-5.2,15.72,11.376,11.376,0,0,1-8.988,2.988c-6.062-.832-8.732-6.663-8.905-7.058a11.247,11.247,0,0,1,.9-11.433,9.5,9.5,0,0,1,6.184-3.533,6.984,6.984,0,0,1,7.445,3.171,8.519,8.519,0,0,1,.4,7.481,5.991,5.991,0,0,1-4.683,4.173,5.237,5.237,0,0,1-3.439-.858,4.888,4.888,0,0,1-2.126-3.579,5.082,5.082,0,0,1,2.149-4.308c.1-.081,1.159-.875,1.746-.458a.826.826,0,0,1,.295.451c.459,1.483-1.9,3.635-1.355,4.557.445.75,2.174.621,3.315-.082a4.244,4.244,0,0,0,1.847-4.169c-.43-2.151-3.317-3.969-6.886-3.177a8.419,8.419,0,0,0-4.421,7.975,8.173,8.173,0,0,0,6.907,7.53c.368.036,6.962.574,10.653-4.7,3.188-4.558,2.81-11.457-1.26-16.286-.682-.76-6.083-6.593-13.346-5.637-7.387.972-13.7,8.572-14.08,18.355l1.166,12.556a17.894,17.894,0,0,1-1.263-1.4,18.748,18.748,0,0,1-2.735-4.6" transform="translate(-1530.403 -393.321)" fill="#fff"/>
              </g>
            </g>
          </g>
          <path id="Path_38237" data-name="Path 38237" d="M1688.773,651.141l345.123,1.111c27.591-8.164,45.716-34.771,44.276-61.742-1.721-32.344-31.3-59.977-66.277-56.284-.38-2.328-10.471-58.4-59.31-77.594-36.594-14.382-79.108-1.832-105.371,31.667,0,0-111.221-48.955-145.231,74.159,0,0-68.93,29.826-13.211,88.683" transform="translate(-453.486 -101.684)" fill="#f6ebf8"/>
        </g>
      </g>
      <g id="Group_776" data-name="Group 776" transform="translate(1213.538 349.069)">
        <g id="Group_775" data-name="Group 775" clip-path="url(#clip-path-57)">
          <path id="Path_38244" data-name="Path 38244" d="M.365.845l653.7-.709-.3,296.973-653.7.709Z" transform="translate(-111.776 -40.976) rotate(-0.974)" fill="#f6ebf8"/>
        </g>
      </g>
      <g id="Group_778" data-name="Group 778">
        <g id="Group_777" data-name="Group 777" clip-path="url(#clip-path-2)">
          <path id="Path_38239" data-name="Path 38239" d="M578.022,641.931l386.728,1.244c30.916-9.148,51.226-38.962,49.614-69.185-1.93-36.243-35.076-67.207-74.267-63.068-.426-2.609-11.733-65.442-66.459-86.948-41.006-16.116-88.645-2.053-118.074,35.484,0,0-124.629-54.857-162.738,83.1,0,0-77.239,33.422-14.8,99.374" transform="translate(-150.611 -94.157)" fill="#f6ebf8"/>
        </g>
      </g>
      <g id="Group_780" data-name="Group 780" transform="translate(403.039 323.23)">
        <g id="Group_779" data-name="Group 779" clip-path="url(#clip-path-59)">
          <path id="Path_38245" data-name="Path 38245" d="M.409.947,732.916.152l-.339,332.772L.07,333.719Z" transform="translate(-125.25 -45.916) rotate(-0.974)" fill="#f6ebf8"/>
        </g>
      </g>
      <rect id="Rectangle_2294" data-name="Rectangle 2294" width="2329.894" height="631.356" fill="none"/>
    </g>
  </g>
</svg>
