<svg id="Group_816" data-name="Group 816" xmlns="http://www.w3.org/2000/svg" width="59" height="62" viewBox="0 0 59 62">
  <path id="Path_9" data-name="Path 9" d="M51.243.156H9.469A8.846,8.846,0,0,0,.855,9.208V53.1a8.846,8.846,0,0,0,8.614,9.052H51.243A8.845,8.845,0,0,0,59.855,53.1V9.208A8.845,8.845,0,0,0,51.243.156ZM30.355,19.531c6.108,0,11.062,5.208,11.062,11.625S36.463,42.781,30.355,42.781,19.292,37.575,19.292,31.156,24.249,19.531,30.355,19.531ZM53.719,54.406a1.261,1.261,0,0,1-1.239,1.3H8.23a1.261,1.261,0,0,1-1.237-1.3V27.281h6.539a18.972,18.972,0,0,0-.376,3.875c0,9.99,7.692,18.073,17.2,18.073s17.2-8.083,17.2-18.073a18.972,18.972,0,0,0-.376-3.875h6.539Zm0-38.75a1.261,1.261,0,0,1-1.239,1.3H45.1a1.261,1.261,0,0,1-1.237-1.3V7.906A1.262,1.262,0,0,1,45.1,6.6H52.48a1.263,1.263,0,0,1,1.239,1.3Z" transform="translate(-0.855 -0.156)" fill="#fcf9f9" fill-rule="evenodd"/>
</svg>
