<svg id="Kurv" xmlns="http://www.w3.org/2000/svg" width="53.758" height="50.112" viewBox="0 0 53.758 50.112">
  <path id="Path_42" data-name="Path 42" d="M52.315,14.491H40.61S37.9,3.389,34.721-1.529c-.1-.148-.191-.29-.339-.5C31.341-6.388,28.2-5.445,28.2-5.445s-3.982-1-7.164,3.916-5.889,16.021-5.889,16.021H3.444A2.483,2.483,0,0,0,1,17a2.163,2.163,0,0,0,.1.677L7.3,40.92A4.881,4.881,0,0,0,12,44.581H43.762a4.932,4.932,0,0,0,4.716-3.661l6.207-23.244L54.758,17A2.483,2.483,0,0,0,52.315,14.491ZM27.879-.107s3.061-.142,4.177,1.865a8.113,8.113,0,0,1,1.17,3.078l1.495,9.655H21.037l1.272-7.6s.344-3.384,1.736-5.133A5.723,5.723,0,0,1,27.879-.107ZM43.762,39.566l-31.742.025L6.645,19.506H49.138Z" transform="translate(-1 5.531)" fill="#fff8f8"/>
</svg>
