<svg id="Layer_1" data-name="Layer 1" xmlns="http://www.w3.org/2000/svg" xmlns:xlink="http://www.w3.org/1999/xlink" width="580" height="277" viewBox="0 0 580 277"><defs><style>.cls-1,.cls-4,.cls-6{fill:#fff;}.cls-1,.cls-2,.cls-6,.cls-7,.cls-9{stroke-miterlimit:10;stroke-width:15px;}.cls-1,.cls-7{stroke:url(#linear-gradient);}.cls-2,.cls-7,.cls-9{fill:none;}.cls-2{stroke:url(#linear-gradient-2);}.cls-3{isolation:isolate;}.cls-5{clip-path:url(#clip-path);}.cls-6{stroke:url(#linear-gradient-3);}.cls-8{clip-path:url(#clip-path-2);}.cls-9{stroke:url(#linear-gradient-5);}</style><linearGradient id="linear-gradient" x1="-596.95" y1="138.5" x2="-17.05" y2="138.5" gradientUnits="userSpaceOnUse"><stop offset="0" stop-color="#b7d1f7"/><stop offset="1" stop-color="#cab1ef"/></linearGradient><linearGradient id="linear-gradient-2" x1="0.05" y1="139.5" x2="579.95" y2="139.5" xlink:href="#linear-gradient"/><clipPath id="clip-path"><path class="cls-1" d="M-559.57,267.16l474.09,1.44c37.9-10.55,62.8-44.9,60.82-79.73-2.36-41.77-43-77.45-91-72.68-.53-3-14.39-75.41-81.48-100.2-50.27-18.57-108.67-2.36-144.74,40.89,0,0-152.79-63.21-199.51,95.76C-541.43,152.64-636.11,191.16-559.57,267.16Z"/></clipPath><linearGradient id="linear-gradient-3" x1="-750.1" y1="140.66" x2="169.51" y2="140.66" gradientTransform="translate(2.35 4.95) rotate(0.97)" xlink:href="#linear-gradient"/><clipPath id="clip-path-2"><path class="cls-2" d="M37.43,268.16l474.09,1.44c37.9-10.55,62.8-44.9,60.82-79.73-2.36-41.77-43-77.45-91-72.68-.53-3-14.39-75.41-81.48-100.2C349.55-1.58,291.15,14.63,255.08,57.88c0,0-152.79-63.21-199.51,95.76C55.57,153.64-39.11,192.16,37.43,268.16Z"/></clipPath><linearGradient id="linear-gradient-5" x1="-153.1" y1="141.66" x2="766.51" y2="141.66" gradientTransform="translate(2.45 -5.19) rotate(0.97)" xlink:href="#linear-gradient"/></defs><g class="cls-3"><path class="cls-4" d="M-559.57,267.16l474.09,1.44c37.9-10.55,62.8-44.9,60.82-79.73-2.36-41.77-43-77.45-91-72.68-.53-3-14.39-75.41-81.48-100.2-50.27-18.57-108.67-2.36-144.74,40.89,0,0-152.79-63.21-199.51,95.76C-541.43,152.64-636.11,191.16-559.57,267.16Z"/><g class="cls-5"><g id="Mask_Group_3" data-name="Mask Group 3"><rect id="Image_9" data-name="Image 9" class="cls-6" x="-739.28" y="-51.09" width="897.97" height="383.49" transform="translate(-2.43 -4.91) rotate(-0.97)"/></g></g><path class="cls-7" d="M-559.57,267.16l474.09,1.44c37.9-10.55,62.8-44.9,60.82-79.73-2.36-41.77-43-77.45-91-72.68-.53-3-14.39-75.41-81.48-100.2-50.27-18.57-108.67-2.36-144.74,40.89,0,0-152.79-63.21-199.51,95.76C-541.43,152.64-636.11,191.16-559.57,267.16Z"/></g><g class="cls-3"><g class="cls-8"><g id="Mask_Group_3-2" data-name="Mask Group 3"><rect id="Image_9-2" data-name="Image 9" class="cls-9" x="-142.28" y="-50.09" width="897.97" height="383.49" transform="translate(-2.36 5.23) rotate(-0.97)"/></g></g><path class="cls-2" d="M37.43,268.16l474.09,1.44c37.9-10.55,62.8-44.9,60.82-79.73-2.36-41.77-43-77.45-91-72.68-.53-3-14.39-75.41-81.48-100.2C349.55-1.58,291.15,14.63,255.08,57.88c0,0-152.79-63.21-199.51,95.76C55.57,153.64-39.11,192.16,37.43,268.16Z"/></g></svg>