<svg id="Layer_1" data-name="Layer 1" xmlns="http://www.w3.org/2000/svg" xmlns:xlink="http://www.w3.org/1999/xlink" width="825" height="390" viewBox="0 0 825 390"><defs><style>.cls-1,.cls-4,.cls-6{fill:#fff;}.cls-1,.cls-2,.cls-6,.cls-7,.cls-9{stroke-miterlimit:10;stroke-width:15px;}.cls-1,.cls-7{stroke:url(#linear-gradient);}.cls-2,.cls-7,.cls-9{fill:none;}.cls-2{stroke:url(#linear-gradient-2);}.cls-3{isolation:isolate;}.cls-5{clip-path:url(#clip-path);}.cls-6{stroke:url(#linear-gradient-3);}.cls-8{clip-path:url(#clip-path-2);}.cls-9{stroke:url(#linear-gradient-5);}</style><linearGradient id="linear-gradient" x1="0.34" y1="195" x2="824.66" y2="195" gradientUnits="userSpaceOnUse"><stop offset="0" stop-color="#b7d1f7"/><stop offset="1" stop-color="#cab1ef"/></linearGradient><linearGradient id="linear-gradient-2" x1="0.65" y1="636.43" x2="824.97" y2="636.43" xlink:href="#linear-gradient"/><clipPath id="clip-path"><path class="cls-1" d="M50.64,379.33l679.22,2.06c54.3-15.11,90-64.33,87.14-114.23-3.39-59.83-61.6-111-130.44-104.12-.74-4.31-20.6-108-116.72-143.55-72-26.61-155.69-3.39-207.37,58.58,0,0-218.89-90.57-285.83,137.2C76.64,215.26-59,270.45,50.64,379.33Z"/></clipPath><linearGradient id="linear-gradient-3" x1="-219.02" y1="198.09" x2="1091.88" y2="198.09" gradientTransform="translate(3.43 -7.39) rotate(0.97)" xlink:href="#linear-gradient"/><clipPath id="clip-path-2"><path class="cls-2" d="M51,820.76l679.22,2.06c54.3-15.11,90-64.33,87.14-114.22-3.39-59.84-61.6-111-130.44-104.13-.75-4.31-20.61-108-116.72-143.55-72-26.61-155.69-3.39-207.38,58.58,0,0-218.89-90.56-285.82,137.2C76.94,656.69-58.71,711.88,51,820.76Z"/></clipPath><linearGradient id="linear-gradient-5" x1="-218.71" y1="639.52" x2="1092.19" y2="639.52" gradientTransform="translate(10.93 -7.33) rotate(0.97)" xlink:href="#linear-gradient"/></defs><g class="cls-3"><path class="cls-4" d="M50.64,379.33l679.22,2.06c54.3-15.11,90-64.33,87.14-114.23-3.39-59.83-61.6-111-130.44-104.12-.74-4.31-20.6-108-116.72-143.55-72-26.61-155.69-3.39-207.37,58.58,0,0-218.89-90.57-285.83,137.2C76.64,215.26-59,270.45,50.64,379.33Z"/><g class="cls-5"><g id="Mask_Group_3" data-name="Mask Group 3"><rect id="Image_9" data-name="Image 9" class="cls-6" x="-206.82" y="-76.62" width="1286.5" height="549.41" transform="translate(-3.3 7.45) rotate(-0.97)"/></g></g><path class="cls-7" d="M50.64,379.33l679.22,2.06c54.3-15.11,90-64.33,87.14-114.23-3.39-59.83-61.6-111-130.44-104.12-.74-4.31-20.6-108-116.72-143.55-72-26.61-155.69-3.39-207.37,58.58,0,0-218.89-90.57-285.83,137.2C76.64,215.26-59,270.45,50.64,379.33Z"/></g><g class="cls-3"><g class="cls-8"><g id="Mask_Group_3-2" data-name="Mask Group 3"><rect id="Image_9-2" data-name="Image 9" class="cls-9" x="-206.51" y="364.81" width="1286.5" height="549.41" transform="translate(-10.81 7.52) rotate(-0.97)"/></g></g><path class="cls-2" d="M51,820.76l679.22,2.06c54.3-15.11,90-64.33,87.14-114.22-3.39-59.84-61.6-111-130.44-104.13-.75-4.31-20.61-108-116.72-143.55-72-26.61-155.69-3.39-207.38,58.58,0,0-218.89-90.56-285.82,137.2C76.94,656.69-58.71,711.88,51,820.76Z"/></g></svg>