<svg id="Layer_1" data-name="Layer 1" xmlns="http://www.w3.org/2000/svg" xmlns:xlink="http://www.w3.org/1999/xlink" width="825" height="390" viewBox="0 0 825 390"><defs><style>.cls-1,.cls-5,.cls-7{fill:#fff;}.cls-1,.cls-11,.cls-2,.cls-7,.cls-8{stroke-miterlimit:10;stroke-width:15px;}.cls-1,.cls-8{stroke:url(#linear-gradient);}.cls-11,.cls-2,.cls-8{fill:none;}.cls-2{stroke:url(#linear-gradient-2);}.cls-3,.cls-9{fill:url(#linear-gradient-3);}.cls-3{clip-path:url(#clip-path);}.cls-4{isolation:isolate;}.cls-6{clip-path:url(#clip-path-2);}.cls-7{stroke:url(#linear-gradient-4);}.cls-10{clip-path:url(#clip-path-3);}.cls-11{stroke:url(#linear-gradient-7);}</style><linearGradient id="linear-gradient" x1="-971.97" y1="181.57" x2="-147.65" y2="181.57" gradientUnits="userSpaceOnUse"><stop offset="0" stop-color="#b7d1f7"/><stop offset="1" stop-color="#cab1ef"/></linearGradient><linearGradient id="linear-gradient-2" x1="-971.66" y1="623" x2="-147.34" y2="623" xlink:href="#linear-gradient"/><linearGradient id="linear-gradient-3" x1="7.84" y1="191.59" x2="817.16" y2="191.59" xlink:href="#linear-gradient"/><clipPath id="clip-path"><path class="cls-2" d="M-921.36,807.33l679.22,2.06c54.3-15.11,90-64.33,87.14-114.23-3.39-59.83-61.6-111-130.44-104.12-.74-4.31-20.6-108-116.72-143.55-72-26.61-155.69-3.39-207.37,58.58,0,0-218.89-90.57-285.83,137.2C-895.36,643.26-1031,698.45-921.36,807.33Z"/></clipPath><clipPath id="clip-path-2"><path class="cls-1" d="M-921.66,365.9-242.44,368c54.3-15.1,90-64.32,87.14-114.22-3.39-59.84-61.61-111-130.44-104.13-.75-4.3-20.61-108-116.73-143.54-72-26.61-155.68-3.39-207.37,58.58,0,0-218.89-90.57-285.82,137.19C-895.67,201.83-1031.32,257-921.66,365.9Z"/></clipPath><linearGradient id="linear-gradient-4" x1="-1191.33" y1="184.66" x2="119.58" y2="184.66" gradientTransform="translate(3.06 9.14) rotate(0.97)" xlink:href="#linear-gradient"/><clipPath id="clip-path-3"><path class="cls-3" d="M50.64,375.93,729.86,378c54.3-15.1,90-64.33,87.14-114.22-3.39-59.84-61.6-111-130.44-104.13-.74-4.3-20.6-108-116.72-143.55-72-26.6-155.69-3.39-207.37,58.59,0,0-218.89-90.57-285.83,137.19C76.64,211.85-59,267,50.64,375.93Z"/></clipPath><linearGradient id="linear-gradient-7" x1="-1191.02" y1="626.09" x2="119.88" y2="626.09" gradientTransform="translate(10.56 9.19) rotate(0.97)" xlink:href="#linear-gradient"/></defs><g class="cls-4"><path class="cls-5" d="M-921.66,365.9-242.44,368c54.3-15.1,90-64.32,87.14-114.22-3.39-59.84-61.61-111-130.44-104.13-.75-4.3-20.61-108-116.73-143.54-72-26.61-155.68-3.39-207.37,58.58,0,0-218.89-90.57-285.82,137.19C-895.67,201.83-1031.32,257-921.66,365.9Z"/><g class="cls-6"><g id="Mask_Group_3" data-name="Mask Group 3"><rect id="Image_9" data-name="Image 9" class="cls-7" x="-1179.12" y="-90.05" width="1286.5" height="549.41" transform="translate(-3.22 -9.08) rotate(-0.97)"/></g></g><path class="cls-8" d="M-921.66,365.9-242.44,368c54.3-15.1,90-64.32,87.14-114.22-3.39-59.84-61.61-111-130.44-104.13-.75-4.3-20.61-108-116.73-143.54-72-26.61-155.68-3.39-207.37,58.58,0,0-218.89-90.57-285.82,137.19C-895.67,201.83-1031.32,257-921.66,365.9Z"/></g><g class="cls-4"><path class="cls-9" d="M50.64,375.93,729.86,378c54.3-15.1,90-64.33,87.14-114.22-3.39-59.84-61.6-111-130.44-104.13-.74-4.3-20.6-108-116.72-143.55-72-26.6-155.69-3.39-207.37,58.59,0,0-218.89-90.57-285.83,137.19C76.64,211.85-59,267,50.64,375.93Z"/><g class="cls-10"><g id="Mask_Group_3-2" data-name="Mask Group 3"><rect id="Image_9-2" data-name="Image 9" class="cls-11" x="-1178.82" y="351.38" width="1286.5" height="549.41" transform="translate(-10.72 -9.01) rotate(-0.97)"/></g></g><path class="cls-2" d="M-921.36,807.33l679.22,2.06c54.3-15.11,90-64.33,87.14-114.23-3.39-59.83-61.6-111-130.44-104.12-.74-4.31-20.6-108-116.72-143.55-72-26.61-155.69-3.39-207.37,58.58,0,0-218.89-90.57-285.83,137.2C-895.36,643.26-1031,698.45-921.36,807.33Z"/></g></svg>