<svg id="Layer_1" data-name="Layer 1" xmlns="http://www.w3.org/2000/svg" xmlns:xlink="http://www.w3.org/1999/xlink" width="2785" height="560" viewBox="0 0 2785 560"><defs><style>.cls-1{fill:#f6ebf8;}.cls-2{clip-path:url(#clip-path);}.cls-3{clip-path:url(#clip-path-2);}.cls-4{clip-path:url(#clip-path-3);}.cls-5{opacity:0.42;}.cls-6{fill:#5cb8df;}.cls-6,.cls-7{isolation:isolate;}.cls-7{fill:#ee70c7;}.cls-8{fill:#fff;}.cls-9{clip-path:url(#clip-path-4);}.cls-10{clip-path:url(#clip-path-5);}</style><clipPath id="clip-path"><path class="cls-1" d="M2027,554l671.08,2c53.65-14.92,88.9-63.55,86.1-112.85-3.35-59.12-60.87-109.63-128.88-102.88-.74-4.25-20.36-106.75-115.32-141.83-71.16-26.29-153.83-3.35-204.9,57.88,0,0-216.26-89.48-282.39,135.55C2052.66,391.85,1918.63,446.37,2027,554Z"/></clipPath><clipPath id="clip-path-2"><path class="cls-1" d="M970.51,555.79l701.35,2.12c56.07-15.6,92.9-66.42,90-117.95-3.5-61.78-63.61-114.57-134.69-107.51-.77-4.45-21.28-111.57-120.53-148.23-74.36-27.47-160.76-3.5-214.13,60.49,0,0-226-93.52-295.13,141.67C997.35,386.37,857.28,443.35,970.51,555.79Z"/></clipPath><clipPath id="clip-path-3"><path class="cls-1" d="M30.56,557.79l474.1,1.43c37.9-10.54,62.8-44.9,60.82-79.73-2.37-41.76-43-77.44-91.05-72.67-.52-3-14.38-75.42-81.47-100.2-50.27-18.57-108.67-2.37-144.75,40.89,0,0-152.78-63.22-199.5,95.76C48.71,443.27-46,481.79,30.56,557.79Z"/></clipPath><clipPath id="clip-path-4"><path class="cls-1" d="M1544.56,557.79l474.1,1.43c37.9-10.54,62.8-44.9,60.82-79.73-2.37-41.76-43-77.44-91-72.67-.52-3-14.38-75.42-81.47-100.2-50.27-18.57-108.67-2.37-144.75,40.89,0,0-152.78-63.22-199.5,95.76C1562.71,443.27,1468,481.79,1544.56,557.79Z"/></clipPath><clipPath id="clip-path-5"><path class="cls-1" d="M434.79,555.61,966,557.22c42.46-11.81,70.37-50.31,68.15-89.34-2.65-46.8-48.18-86.78-102-81.44-.59-3.37-16.12-84.5-91.29-112.27-56.33-20.81-121.77-2.65-162.2,45.82,0,0-171.2-70.84-223.55,107.3C455.12,427.29,349,470.45,434.79,555.61Z"/></clipPath></defs><path class="cls-1" d="M2027,554l671.08,2c53.65-14.92,88.9-63.55,86.1-112.85-3.35-59.12-60.87-109.63-128.88-102.88-.74-4.25-20.36-106.75-115.32-141.83-71.16-26.29-153.83-3.35-204.9,57.88,0,0-216.26-89.48-282.39,135.55C2052.66,391.85,1918.63,446.37,2027,554Z"/><g class="cls-2"><g id="Mask_Group_3" data-name="Mask Group 3"><rect id="Image_9" data-name="Image 9" class="cls-1" x="1772.6" y="103.47" width="1271.09" height="542.83" transform="translate(-6.02 40.99) rotate(-0.97)"/></g></g><path class="cls-1" d="M970.51,555.79l701.35,2.12c56.07-15.6,92.9-66.42,90-117.95-3.5-61.78-63.61-114.57-134.69-107.51-.77-4.45-21.28-111.57-120.53-148.23-74.36-27.47-160.76-3.5-214.13,60.49,0,0-226-93.52-295.13,141.67C997.35,386.37,857.28,443.35,970.51,555.79Z"/><g class="cls-3"><g id="Mask_Group_3-2" data-name="Mask Group 3"><rect id="Image_9-2" data-name="Image 9" class="cls-1" x="704.66" y="84.98" width="1328.41" height="567.31" transform="translate(-6.07 23.32) rotate(-0.97)"/></g></g><path class="cls-1" d="M30.56,557.79l474.1,1.43c37.9-10.54,62.8-44.9,60.82-79.73-2.37-41.76-43-77.44-91.05-72.67-.52-3-14.38-75.42-81.47-100.2-50.27-18.57-108.67-2.37-144.75,40.89,0,0-152.78-63.22-199.5,95.76C48.71,443.27-46,481.79,30.56,557.79Z"/><g class="cls-4"><g id="Mask_Group_3-3" data-name="Mask Group 3"><rect id="Image_9-3" data-name="Image 9" class="cls-1" x="-149.14" y="239.54" width="897.97" height="383.49" transform="translate(-7.29 5.16) rotate(-0.97)"/></g></g><g class="cls-5"><rect class="cls-6" x="214.08" y="252.14" width="11.44" height="126.94" rx="4.5" transform="matrix(0.97, -0.26, 0.26, 0.97, -73.64, 66.99)"/><circle class="cls-7" cx="188.54" cy="197.9" r="64.04"/><path class="cls-8" d="M147,246.64c-16.47-24.44-15.78-54.63.17-73.29,14.15-16.56,35.19-18.06,40.05-18.29,2.09-.14,22.43-1.18,36,15.07a43.18,43.18,0,0,1,6.36,44.09c-.74,1.91-5.65,14-19,18.91-16.32,6-30.26-4.29-31.19-5-9.33-6.88-14-17.95-11.87-28.28,2-9.7,9.22-15.11,11.22-16.51a20.4,20.4,0,0,1,22.69-2.29c9.72,5.38,10.24,16.67,10.26,17.21.78,6.51-1.74,12.73-6.64,16.05a15.57,15.57,0,0,1-9.73,2.49c-.64,0-6.56-.53-9.8-5.68-3.11-5-1.23-10.38.09-13,.16-.33,1.84-3.6,3.83-3.38a2.14,2.14,0,0,1,1.31.68c3,2.91-.3,11.12,2.22,12.58,2,1.19,6.25-1.39,8.25-4.56a11.07,11.07,0,0,0-.5-12.31c-3.75-4.53-13.27-5-21.29,1.53a22.26,22.26,0,0,0-1.28,24.72c5.35,8.63,16.57,12.46,26.73,8.75,1-.39,18.26-7.8,21-25.16,2.39-15-7.1-30.85-23.33-36.94-2.66-.9-23.49-7.62-40.62,4.21-17.42,12-23.93,38.35-12.78,62q9.24,14.1,18.47,28.22c-1.55-.44-3.2-1-4.91-1.65a49.77,49.77,0,0,1-12.59-7.31"/></g><g class="cls-5"><rect class="cls-6" x="1003.21" y="324.29" width="11.44" height="126.94" rx="4.5" transform="translate(-65.72 271.95) rotate(-14.87)"/><circle class="cls-7" cx="977.67" cy="270.04" r="64.04"/><path class="cls-8" d="M936.13,318.78c-16.47-24.43-15.78-54.63.17-73.29,14.15-16.56,35.19-18.06,40.05-18.29,2.09-.14,22.43-1.18,36,15.07a43.18,43.18,0,0,1,6.36,44.09c-.74,1.92-5.65,14-19,18.91-16.32,6-30.26-4.29-31.19-5-9.33-6.88-14-17.95-11.87-28.28,2-9.7,9.22-15.11,11.22-16.51a20.4,20.4,0,0,1,22.69-2.29c9.72,5.38,10.24,16.67,10.26,17.21.78,6.51-1.74,12.73-6.64,16.05a15.5,15.5,0,0,1-9.73,2.49c-.64,0-6.56-.53-9.8-5.68-3.11-4.95-1.23-10.38.09-13,.16-.33,1.84-3.6,3.83-3.38a2.27,2.27,0,0,1,1.31.68c3,2.91-.3,11.12,2.22,12.58,2,1.19,6.25-1.39,8.25-4.56a11.07,11.07,0,0,0-.5-12.31c-3.75-4.53-13.27-5-21.29,1.53a22.26,22.26,0,0,0-1.28,24.72c5.35,8.63,16.57,12.46,26.73,8.76,1-.4,18.26-7.81,21-25.17,2.39-15-7.1-30.85-23.33-36.94-2.66-.9-23.49-7.61-40.62,4.21-17.42,12-23.93,38.35-12.78,62q9.24,14.1,18.47,28.22A50.64,50.64,0,0,1,951.9,329a49.77,49.77,0,0,1-12.59-7.31"/></g><g class="cls-5"><rect class="cls-6" x="2426.68" y="147.25" width="14.03" height="155.72" rx="4.5" transform="translate(109.03 -529.55) rotate(12.7)"/><circle class="cls-7" cx="2466.54" cy="79.36" r="78.56"/><path class="cls-8" d="M2393.69,108.77c-4-35.93,13.87-68.37,41.81-79.6,24.79-10,48.52.34,53.93,2.86,2.36,1,25.07,11.44,30.57,36.81,4.1,18.9-2.93,38.79-18.13,51.55-1.89,1.66-14.09,12-31.35,9.8-21.15-2.73-30.47-21.85-31.07-23.15-6.24-12.78-5-27.46,3.15-37.49,7.67-9.41,18.6-11.2,21.57-11.59a25,25,0,0,1,26,10.4c7.51,11.37,1.67,24,1.38,24.54-2.85,7.52-9.12,12.85-16.34,13.68a19.13,19.13,0,0,1-12-2.81c-.67-.41-6.83-4.31-7.42-11.74-.58-7.15,4.55-12,7.49-14.13.37-.26,4.05-2.87,6.1-1.5a2.72,2.72,0,0,1,1,1.48c1.61,4.86-6.63,11.92-4.73,14.94,1.56,2.46,7.59,2,11.57-.27,4.94-2.86,7.43-9,6.44-13.67-1.5-7.06-11.57-13-24-10.42-10.11,5-16.22,15.43-15.42,26.15.92,12.41,10.94,23,24.09,24.69,1.29.12,24.29,1.89,37.17-15.42,11.12-14.95,9.8-37.57-4.4-53.41-2.38-2.49-21.22-21.62-46.56-18.48-25.77,3.18-47.79,28.11-49.12,60.19q2,20.59,4.07,41.18a62.88,62.88,0,0,1-4.41-4.58,61.1,61.1,0,0,1-9.54-15.1"/></g><g class="cls-5"><rect class="cls-6" x="2481.76" y="245.12" width="5.52" height="61.31" rx="2.76" transform="translate(121.42 -539.48) rotate(12.7)"/><circle class="cls-7" cx="2497.45" cy="218.39" r="30.93"/><path class="cls-8" d="M2468.77,230c-1.59-14.14,5.46-26.92,16.46-31.34,9.76-3.92,19.1.13,21.23,1.12.93.41,9.87,4.51,12,14.5a20.84,20.84,0,0,1-7.14,20.3,16.2,16.2,0,0,1-12.34,3.86c-8.33-1.08-12-8.61-12.24-9.12-2.45-5-2-10.81,1.24-14.76a13.3,13.3,0,0,1,8.5-4.56,9.84,9.84,0,0,1,10.23,4.09c2.95,4.48.65,9.43.54,9.66a8.08,8.08,0,0,1-6.43,5.39,7.47,7.47,0,0,1-4.72-1.11,6.28,6.28,0,0,1-2.93-4.62c-.22-2.81,1.79-4.72,3-5.56.14-.11,1.59-1.13,2.39-.59a1,1,0,0,1,.41.58c.63,1.91-2.61,4.69-1.86,5.88.61,1,3,.8,4.55-.1a5.36,5.36,0,0,0,2.54-5.39c-.59-2.78-4.56-5.12-9.46-4.1a10.52,10.52,0,0,0,3.41,20c.51,0,9.57.74,14.64-6.07,4.38-5.89,3.86-14.8-1.73-21-.94-1-8.36-8.52-18.34-7.28-10.14,1.25-18.81,11.07-19.34,23.7q.81,8.12,1.6,16.22c-.57-.54-1.15-1.14-1.73-1.81a24.1,24.1,0,0,1-3.76-5.94"/></g><g class="cls-5"><rect class="cls-6" x="1392.76" y="297.12" width="5.52" height="61.31" rx="2.76" transform="translate(106.21 -298.79) rotate(12.7)"/><circle class="cls-7" cx="1408.45" cy="270.39" r="30.93"/><path class="cls-8" d="M1379.77,282c-1.59-14.14,5.46-26.92,16.46-31.34,9.76-3.92,19.1.13,21.23,1.12.93.41,9.87,4.51,12,14.5a20.84,20.84,0,0,1-7.14,20.3,16.2,16.2,0,0,1-12.34,3.86c-8.33-1.08-12-8.61-12.24-9.12-2.45-5-2-10.81,1.24-14.76a13.3,13.3,0,0,1,8.5-4.56,9.84,9.84,0,0,1,10.23,4.09c3,4.48.65,9.43.54,9.66a8.08,8.08,0,0,1-6.43,5.39,7.47,7.47,0,0,1-4.72-1.11,6.28,6.28,0,0,1-2.93-4.62c-.22-2.81,1.79-4.72,3-5.56.14-.11,1.59-1.13,2.39-.59a1,1,0,0,1,.41.58c.63,1.91-2.61,4.69-1.86,5.88.61,1,3,.8,4.55-.1a5.36,5.36,0,0,0,2.54-5.39c-.59-2.78-4.56-5.12-9.46-4.1a10.52,10.52,0,0,0,3.41,20c.51.05,9.57.74,14.64-6.07,4.38-5.89,3.86-14.8-1.73-21-.94-1-8.36-8.52-18.34-7.28-10.14,1.25-18.81,11.07-19.34,23.7q.81,8.12,1.6,16.22c-.57-.54-1.15-1.14-1.73-1.81a24.1,24.1,0,0,1-3.76-5.94"/></g><path class="cls-1" d="M1544.56,557.79l474.1,1.43c37.9-10.54,62.8-44.9,60.82-79.73-2.37-41.76-43-77.44-91-72.67-.52-3-14.38-75.42-81.47-100.2-50.27-18.57-108.67-2.37-144.75,40.89,0,0-152.78-63.22-199.5,95.76C1562.71,443.27,1468,481.79,1544.56,557.79Z"/><g class="cls-9"><g id="Mask_Group_3-4" data-name="Mask Group 3"><rect id="Image_9-4" data-name="Image 9" class="cls-1" x="1364.86" y="239.54" width="897.97" height="383.49" transform="translate(-7.07 30.89) rotate(-0.97)"/></g></g><path class="cls-1" d="M434.79,555.61,966,557.22c42.46-11.81,70.37-50.31,68.15-89.34-2.65-46.8-48.18-86.78-102-81.44-.59-3.37-16.12-84.5-91.29-112.27-56.33-20.81-121.77-2.65-162.2,45.82,0,0-171.2-70.84-223.55,107.3C455.12,427.29,349,470.45,434.79,555.61Z"/><g class="cls-10"><g id="Mask_Group_3-5" data-name="Mask Group 3"><rect id="Image_9-5" data-name="Image 9" class="cls-1" x="233.42" y="199" width="1006.22" height="429.72" transform="translate(-6.93 12.58) rotate(-0.97)"/></g></g></svg>