<svg id="Layer_1" data-name="Layer 1" xmlns="http://www.w3.org/2000/svg" width="240" height="467" viewBox="0 0 240 467"><defs><style>.cls-1{fill:#5cb8df;}.cls-1,.cls-2{isolation:isolate;}.cls-2{fill:#ee70c7;}.cls-3{fill:#fff;}</style></defs><rect class="cls-1" x="109.32" y="229.23" width="21.37" height="237.2" rx="4.5"/><circle class="cls-2" cx="120" cy="120.24" r="119.67"/><path class="cls-3" d="M21.6,188.35c-18-52-2.29-106.24,35.47-132.29C90.56,33,129.28,40.32,138.16,42.25c3.85.74,41.09,8.61,57.76,44.46,12.42,26.71,8.64,58.63-9.68,82.68-2.25,3.1-16.91,22.59-43.31,25.06-32.34,3-52.58-22.27-53.92-24-13.55-16.91-16.67-39.13-7.87-56.77C89.39,97.13,105,90.82,109.32,89.25c14.38-6.51,31.12-3.78,42.08,6.75,15,14.39,10.5,35,10.27,36-1.71,12.13-9.25,22.16-19.69,25.81a29.21,29.21,0,0,1-18.77-.17c-1.14-.38-11.59-4.12-15-15-3.25-10.43,2.74-19.34,6.41-23.51.45-.51,5-5.62,8.55-4.27a4.13,4.13,0,0,1,2,1.85c4,6.69-5.87,19.94-2,23.79,3.13,3.14,12,.49,17.09-4.27,6.38-5.91,8-15.92,5-22.48-4.59-10-21.56-15.46-39.19-7.44-13.34,10.83-18.93,28.38-14.16,44C97.48,168.52,115.89,180.82,136,179c1.94-.25,36.72-5.34,50.06-35.36,11.52-25.94,2-59.12-24.42-77.9-4.37-2.91-38.78-25-75.38-11.88-37.23,13.37-61.6,57.78-52.84,105.91q9.93,29.91,19.84,59.83a91.19,91.19,0,0,1-8.08-5.34A92.54,92.54,0,0,1,26,195"/></svg>