<svg xmlns="http://www.w3.org/2000/svg" width="282.58" height="206.17" viewBox="0 0 282.58 206.17"><defs><style>.cls-1,.cls-3{fill:#f6c;stroke:#f6c;stroke-miterlimit:10;}.cls-1{stroke-width:4px;}.cls-2{fill:#fff;}.cls-3{stroke-width:7px;}</style></defs><g id="Layer_2" data-name="Layer 2"><g id="Layer_16" data-name="Layer 16"><path class="cls-1" d="M137.09,203c-1,1-3.4.42-3.84-.24-1-1.48-.48-5.49,1-10,.43-1.26,5-13,3-12-3.26,1.63-8.37,1.94-11,2-.87,0-1.43,1.78-1.76,2.59-2,4.89-3.24,14.4-5.24,17.41-.3.74-2,0-3-1-1.11-1.56-.26-2.49,1-7,.44-1.56,8-35.71,11-40,2-3,4.55-.82,5,0,2,2-1.53,7.35-3.16,12.24a48.84,48.84,0,0,0-2.23,7.44c-.11.87-.63,1.42.23,1.56a18,18,0,0,0,9.16-1.24c.62-.28.05,0,.5-.5,6.5-7.5,5.5-15.5,8.5-18.5,2-2,6.84-.76,5.24,3.18s-4.65,13.24-7.4,22.06C140.91,191.23,138.55,201.05,137.09,203Zm22-7c4-2,5.21-5.43,7-6,2.55-.81,3.64,4.36,2.85,5.48-3.1,4.52-9,7.2-14.69,7.28-9.4.15-11-14-8-19,5.5-9.17,11.3-12.15,15-10,4,2,3,5,0,10-1.7,2.82-3,4-5,5s-2,1-5,1C148.88,196.57,155.58,197.76,159.09,196Zm-2-16c-1.55-1.25-5,2-5,5C153.09,187,158.13,180.82,157.09,180Zm36.16-8.24c1,0,1.91.46,1.84,2.24-.08,2.29-2,5.92-3,8-1.63,3.33-5.18,8.09-6.09,12.3a13.5,13.5,0,0,0,.25,6.46c2.29-.92,11.15-6.25,12-11,.7-4,3.36-.88,2.84.24-1.92,4.07-10.87,13.85-14.94,13.63s-6.07-2.6-6.07-6.07c-2.37,3-5.7,5.77-9.25,5.77-6.89,0-8.88-10.37-2.74-19.33,6-8.73,11.65-10.07,15.16-11.24,3-1,6.14,1.11,6,4C190.21,175,191.25,171.76,193.25,171.76Zm-11,7c-1.12,0-4.92,2.44-7.16,5.24-2.54,3.2-5.84,11.76-3.84,12.76.65.32,6,0,8-2s7-11,7-13S183.25,178.76,182.25,178.76Zm35-4c1-1.52,2-2,3.26-1.76,1.77.34,3.45,2.18,4.58,5,.36.9-2.06,8.88-3,7a9.21,9.21,0,0,0-.52-.91c-1.12-1.71-2.67-1.44-3.33.49a72.5,72.5,0,0,1-4.15,9.42c-3.22,6.45-7.3,12.85-15,9-2-1-3-4-3-6,0-5,4.16-22.24,5.1-23.18s2.06,1.35,2.05,2.59c0,2-.14,1.62-1,5.35-1.21,5.17-2,15-1,16C207.6,204.11,213.45,180.37,217.25,174.76Zm53,1c.53,1.59.84,2.24-.16,6.24-.89,3.56-2.38,6.88-2.84,8.76-1.14,4.56-2.54,8.84,0,8,3-1,9.17-8.59,12-10,4-2-2,6-5,10-2.88,3.83-5.08,5.24-7.16,5.24-6.29,0-8.14-6.56-6-13,1.77-5.24,3.6-9.7,3.34-12.53a2.49,2.49,0,0,0-3.34-2.08c-2.65,1-5.74,3.63-8.53,7.48-3.89,5.35-3.47,13.13-8.47,19.13a3.09,3.09,0,0,1-3.74,0c-1.48-1.48-1.93-3.92-.74-7.62.92-2.92,3.71-10.33,6.48-17.34,1.66-4.2,1.91-5.62,4.16-8.24,1-1,2-1,4,0s-2,8,2.84,3.24C260.42,169.45,269.31,172.94,270.25,175.76Zm-37,21c4-2,8.05-6.19,9.84-6.76,2.55-.81,1,4.14.26,5.27-3.11,4.51-9.41,7.41-15.1,7.49-9.4.15-11.42-13.45-5-22,6-8,9.3-8.15,13-6,4,2,2,5-1,10-1.7,2.82-2,3-4,4s-2.75,2-5.75,2C223.13,197.6,229.73,198.51,233.25,196.76Zm-1.75-17c-1.55-1.26-5,2-5,5C227.5,186.79,232.54,180.6,231.5,179.79Z"/><path class="cls-2" d="M137.25,202.76c-1,1-3.56.66-4,0-1-1.48-.48-5.49,1-10,.43-1.26,5-13,3-12-3.26,1.63-8.37,1.94-11,2-.87,0-1.28,1.54-1.6,2.34-2,4.9-3.4,14.65-5.4,17.66-.3.74-3,0-4-1-1.11-1.56.74-3.49,2-8,.44-1.56,10-35,11-39,2-3,3.55-.82,4,0,2,2-.37,7.1-2,12-.73,2.19-2.77,6-3,8-.11.87-1.24,2,1,2,2,0,6,0,9-1a5.73,5.73,0,0,0,3-3c4.49-9,4-13,6-17,2-2,7-1,5.39,2.94s-5.65,11.23-8.39,20.06C140.07,189,138.71,200.81,137.25,202.76Z"/><path class="cls-2" d="M159.25,195.76c4-2,7.21-5.43,9-6,2.54-.81.78,1.87,0,3-3.11,4.51-8.31,8.92-14,9-9.4.15-10.5-7.52-6-18,3-7,6-9,10-10a4.12,4.12,0,0,1,5,3c.57,1.76-.08,2.79-2,6-1.7,2.82-7,7-10,7C148.88,196.57,155.73,197.51,159.25,195.76Zm1-18c-1.56-1.26-9,5-9,8C152.25,187.76,161.28,178.57,160.25,177.76Z"/><path class="cls-2" d="M191.25,173.76a2.33,2.33,0,0,1,2-1c.9.14,1,.64,1,2,0,2.29-2,5.92-3,8-1.63,3.33-4.08,8.11-5.1,12.29-.9,3.71-.22,5.23,1.1,4.71,2.29-.92,9-6,11-8,2.85-2.86,2.52-.12,2,1-1.93,4.07-9.88,11.84-13.95,11.62s-6.07-2.59-6.07-6.07c-2.37,3-6.43,4.45-10,4.45-6.89,0-7.15-9-1-18,6-8.74,9.49-9.83,13-11,3-1,7.14.11,7,3A19.29,19.29,0,0,1,191.25,173.76Zm-17,11c-2.55,3.19-6.59,11.42-5,13,1,1,8,0,10-2s7-11,7-13c0-.1,0-1.85,0-2a4.27,4.27,0,0,0-4-3C180.25,177.76,175.62,183,174.25,184.76Z"/><path class="cls-2" d="M217.25,174.76c1-1.52,3.28-1.65,5-1s2.87,2.17,4,5c.36.9-.07,4.87-1,3-.18-.35-2.83-3.74-3-4-1.13-1.72-3.19,3.64-3.86,5.58a72.37,72.37,0,0,1-4.14,9.42c-3.23,6.45-7.31,14.84-15,11-2-1-3-6-3-8,0-5,1.69-13.39,4-21,.12-.41,1.37-1.63,2-1,1,1,.86,3.23,0,7-1.21,5.17-2,16-1,17C207.6,204.11,213.45,180.37,217.25,174.76Z"/><path class="cls-2" d="M264.25,171.76c1,0,4,2,5,3,1.18,1.19,1,5,0,9-.89,3.56-5.54,15.84-3,15,3-1,10-9,13-10,5.1-1.71-2,6-5,10-2.88,3.83-4.93,6-7,6-6.29,0-8.15-6.56-6-13,1.76-5.25,3.59-9.71,3.33-12.53-.15-1.63-1.71-2-3.34-2.09-5-.38-8.2,2.77-11,6.62-3.89,5.35-4,12-6,19-1,1-3.08,1.62-3.75,1-1.48-1.48-1.92-3.92-.74-7.62.93-2.91,3.72-10.33,6.49-17.33,1.66-4.2,3-7,5-9,1-1,3.81,2.33,3,5C257.58,171.21,261.78,171.76,264.25,171.76Z"/><path class="cls-3" d="M10.75,130.1c3.83,3.73,17.13,12.55,24,5,3.27-3.6,6-12.87,7-20,1.07-7.31-.54-15.46-1-18-1-5.22-5-26-6-30-1.53-6.14-1.36-16.09,0-21,5-18,11.71-29.54,23-38a22.75,22.75,0,0,1,26-1c8,5,8.47,11.37,10,17,3,11-5.18,27.19-8,32-2.42,4-9,11-16,12-7.22,1-10.22-1.83-11-3-2-3-2.61-5.19,1-16,1-3,5-8,8-11,7.07-7.07,3,5,0,8a20.23,20.23,0,0,0-5,9c-.52,2-1,5.51,0,7s3.49,1.9,4,2c5.28,1,14.32-9.36,16-12,2.42-3.8,6-18,6-22,0-2.38-1.27-14.24-7-18-6.12-4-17.65.32-19,1-4,2-7.88,6.09-11,10a60,60,0,0,0-10,18,55.61,55.61,0,0,0-2,23c.3,2.08,7.61,33.5,8,41,.56,10.72-2.18,20.53-4,26a17.57,17.57,0,0,1-12,12c-6,2-15-2-19-6-3.1-3.11-5-4-8-10a12.7,12.7,0,0,1,0-11c1-2,.71-3.43,5-6,5-3,9-1,11,1,4.12,4.12,7,9,4,8-3.7-1.24-7-6.2-10-6s-6,2-7,4C6,120.61,9.4,128.75,10.75,130.1Z"/><path class="cls-3" d="M59.75,138.1c-5-2.49-6-11-4-16s3.93-10.9,9-18c.62-.86,1-1,1-1,5-3,2.81,4.55,0,9-2.89,4.6-3.36,7.25-5,11s-.79,10.84,1,11c3,.23,7.79-6.22,12-13,4.91-8,12-23,15-23,4-1-.07,8.13-2,12s-3.21,8-5,12c-2,4.44.19,9.15,3,9,3.28-.16,11.09-2.19,10,0-1.27,2.44-7.07,5.38-12,4-3.87-1.09-7.27-6-7-8-1.31,1.76-4,6-7,9C65.54,139.33,61.75,139.1,59.75,138.1Z"/><path class="cls-3" d="M77.75,178.1c-9.34-3.12-7.27-9.89-3-17a25.7,25.7,0,0,1,10-9c5.14-2.57,9-1.9,12-2,7.18-.26,10.17,1.53,13-2,5-5,4.22-17.21,5-19-2.67,2.21-10.86,13.53-17,12-4-1-9-6.25-9-11a27.28,27.28,0,0,1,5-15c6.08-9,16-14,21-14,3,0,6.78.77,8,2,3,3,1.42,9.9,0,17-1,5-4.09,18.91-5,21,5-4,12-15,13-18,.47-.63,1.84,5.22,2,6s-.67,2.89-2,5c-1.81,3-17,16-28,32C97.53,173.69,83.75,180.1,77.75,178.1Zm1-5c5,4,19.93-6.15,25-18-6,1-14.69-1-20,3C79.75,161.1,73.51,168.91,78.75,173.1Zm37-66c-2.38-.48-11.46,4.55-16,10-5,6-5,16-2,17s11-6,15-12C118.24,113.87,120.75,108.1,115.75,107.1Z"/><path class="cls-3" d="M135.21,142.63c-7.18,0-10.17-14.59-3.46-23.53,6-8,21-15.73,21-13,1-2,2-4,3-4,3-1,3.79,2,3,6-.33,1.69-1.88,5.54-3,10-1,4-2,13-1,13,1.61,0,4.34-4.17,5-5a76.06,76.06,0,0,0,9-14c2.41-5.11,4.55-10.11,5-11,1-2,3.64.62,2,6,1-.11,3.18-1.06,5,.16,1.05.7,3,3,6,3,4,0,6.58-4,8-4,1,0-3.05,3.86-6,5s-5,1.26-10-1c-.8-.36-1.54,1.12-2.14,1.76a32.68,32.68,0,0,0-6.86,11.08c-3.41,8.53-3,18-6,19-1.9.63-3.26-9.74,0-13,2-2-6.1,6.73-8,8-3,2-5,0-8-3C146.75,139.1,139,142.63,135.21,142.63Zm.54-19.53c-3,7-2,13,1,13,2,0,7-3,11-8,5.93-7.41,3-14,2-15C148,111.38,138.94,115.66,135.75,123.1Z"/><path class="cls-2" d="M10.25,129.76c3.82,3.73,17.13,12.54,24,5,3.27-3.6,6-12.87,7-20,1.07-7.31-.54-15.47-1-18-1-5.22-5-26-6-30-1.54-6.14-1.37-16.09,0-21,5-18,11.71-29.54,23-38a22.75,22.75,0,0,1,26-1c8,5,8.46,11.37,10,17,3,11-5.18,27.18-8,32-2.42,4-9,11-16,12-7.23,1-10.22-1.83-11-3-2-3-2.61-5.19,1-16,1-3,5-8,8-11,7.07-7.07,3,5,0,8a20.23,20.23,0,0,0-5,9c-.53,2-1,5.51,0,7s3.48,1.9,4,2c5.27,1,14.32-9.36,16-12,2.41-3.8,6-18,6-22,0-2.38-1.28-14.24-7-18-6.12-4-17.66.32-19,1-4,2-7.88,6.09-11,10a59.74,59.74,0,0,0-10,18,55.45,55.45,0,0,0-2,23c.29,2.08,7.6,33.5,8,41,.56,10.72-2.18,20.53-4,26a17.57,17.57,0,0,1-12,12c-6,2-15-2-19-6-3.11-3.11-5-4-8-10a12.7,12.7,0,0,1,0-11c1-2,.71-3.43,5-6,5-3,9-1,11,1,4.12,4.12,7,9,4,8-3.71-1.24-7-6.2-10-6s-6,2-7,4C5.49,120.27,8.89,128.41,10.25,129.76Z"/><path class="cls-2" d="M59.25,137.76c-5-2.49-6-11-4-16s3.93-10.91,9-18c.62-.86,1-1,1-1,5-3,2.8,4.55,0,9s-3.37,7.25-5,11-.8,10.84,1,11c3,.23,7.78-6.22,12-13,4.91-8,12-23,15-23,4-1-.07,8.13-2,12s-3.21,8-5,12c-2,4.44.19,9.15,3,9,3.27-.16,11.09-2.19,10,0-1.27,2.44-7.08,5.38-12,4-3.87-1.09-7.28-6-7-8-1.32,1.76-4,6-7,9C65,139,61.25,138.76,59.25,137.76Z"/><path class="cls-2" d="M77.25,177.76c-9.35-3.12-7.27-9.89-3-17a25.7,25.7,0,0,1,10-9c5.14-2.57,9-1.9,12-2,7.17-.26,11.17,2.53,14-1,5-5,5.22-21.21,6-23-2.67,2.21-13.87,14.53-20,13a9,9,0,0,1-7-9c0-5,.8-10.26,4-15,6.08-9.05,16-14,21-14,3,0,6.77,2.77,8,4,3,3,1.42,7.9,0,15-1,5-4.1,18.91-5,21,5-4,12-11,13-14,.46-.63,1.84,1.22,2,2s-.68.89-2,3c-1.82,3-17,18-28,34C97,173.35,83.25,179.76,77.25,177.76Zm1-5c5,4,19.93-6.15,25-18-6,1-14.7-1-20,3C79.25,160.76,73,168.57,78.25,172.76Zm37-66c-2.38-.48-12.47,4.55-17,10-5,6-4,16-1,17s12-6,16-12C118.73,113.53,120.25,107.76,115.25,106.76Z"/><path class="cls-2" d="M134.7,142.29c-7.18,0-10.16-14.59-3.45-23.53,2.8-3.74,5.71-7.66,10-10,4.88-2.68,11-3.46,11-2a12.35,12.35,0,0,1,1.49-2.37c.87-1.09,1.88-1.88,2.51-.63,1,2,.11,9.54-1,14-1,4-2,13-1,13,1.61,0,5.33-3.17,6-4a92,92,0,0,0,9-15c2.41-5.11,3.55-10.11,4-11,1-2,3.63.61,2,6,1-.11,3.18-2.22,5-1,1.05.7,3.55,3.7,6,3,4.53-1.31,9.89-4.79,9-3-2,4-4,5-7,6s-4.79,1.88-9.94-.49a1.91,1.91,0,0,0-2.21.42c-2.86,3.07-5.86,6.07-7.85,11.07-3.42,8.53-3,17-5,19-1.42,1.41-3.26-9.75,0-13,2-2-6.1,6.73-8,8-3,2-5,0-8-3C146.25,138.76,138.52,142.29,134.7,142.29Zm-.45-19.53c-3,7-1,13,2,13,2,0,8-2,12-7,5.92-7.41,3-16,2-17C148.53,110,137.43,115.32,134.25,122.76Z"/><path class="cls-2" d="M233.77,196.43c4-2,7.21-5.43,9-6,2.54-.82.78,1.87,0,3-3.11,4.51-8.3,8.92-14,9-9.4.14-10.49-7.52-6-18,3-7,6-9,10-10a4.11,4.11,0,0,1,5,3c.57,1.76-.08,2.79-2,6-1.69,2.81-7,7-10,7C223.4,197.23,230.25,198.18,233.77,196.43Zm1-18c-1.56-1.26-9,5-9,8C226.77,188.43,235.8,179.24,234.77,178.43Z"/></g></g></svg>